%FSLAX14Y14*%
%MOIN*%
G04 EasyPC Gerber Version 18.0.1 Build 3581 *
%ADD11C,0.00100*%
%ADD23C,0.00300*%
%ADD71C,0.00500*%
%ADD22C,0.00600*%
%ADD24C,0.01000*%
X0Y0D02*
D02*
D11*
X4531Y14474D02*
X4569Y14455D01*
X4588Y14418*
X4569Y14380*
X4531Y14361*
X4400*
Y14586*
X4531*
X4569Y14568*
X4588Y14530*
X4569Y14493*
X4531Y14474*
X4400*
X4700Y14361D02*
Y14511D01*
Y14455D02*
X4719Y14493D01*
X4756Y14511*
X4794*
X4831Y14493*
X5000Y14511D02*
X5019Y14436D01*
X5056Y14399*
X5094*
X5131Y14436*
X5150Y14511*
X5131Y14436D02*
X5113Y14361D01*
X5094Y14324*
X5056Y14305*
X5019Y14324*
X5300Y14493D02*
X5338Y14511D01*
X5394*
X5431Y14493*
X5450Y14455*
Y14399*
X5431Y14380*
X5394Y14361*
X5356*
X5319Y14380*
X5300Y14399*
Y14418*
X5319Y14436*
X5356Y14455*
X5394*
X5431Y14436*
X5450Y14418*
Y14399D02*
Y14361D01*
X5600D02*
Y14511D01*
Y14455D02*
X5619Y14493D01*
X5656Y14511*
X5694*
X5731Y14493*
X5750Y14455*
Y14361*
X5938Y14511D02*
X6013D01*
X5975Y14549D02*
Y14380D01*
X5994Y14361*
X6013*
X6031Y14380*
X7100Y14361D02*
Y14586D01*
X7288*
X7250Y14474D02*
X7100D01*
X7400Y14361D02*
Y14511D01*
Y14455D02*
X7419Y14493D01*
X7456Y14511*
X7494*
X7531Y14493*
X7775Y14361D02*
Y14511D01*
Y14568D02*
X8000Y14380*
X8038Y14361D01*
X8113*
X8150Y14380*
Y14418*
X8113Y14436*
X8038*
X8000Y14455*
Y14493*
X8038Y14511*
X8113*
X8150Y14493*
X8338Y14511D02*
X8413D01*
X8375Y14549D02*
Y14380D01*
X8394Y14361*
X8413*
X8431Y14380*
X8750D02*
X8731Y14361D01*
X8694*
X8656*
X8619Y14380*
X8600Y14418*
Y14474*
X8619Y14493*
X8656Y14511*
X8694*
X8731Y14493*
X8750Y14474*
Y14455*
X8731Y14436*
X8694Y14418*
X8656*
X8619Y14436*
X8600Y14455*
X8900Y14361D02*
Y14511D01*
Y14455D02*
X8919Y14493D01*
X8956Y14511*
X8994*
X9031Y14493*
X10100Y14361D02*
Y14586D01*
Y14474D02*
X10288D01*
Y14361D02*
Y14586D01*
X10400Y14493D02*
X10438Y14511D01*
X10494*
X10531Y14493*
X10550Y14455*
Y14399*
X10531Y14380*
X10494Y14361*
X10456*
X10419Y14380*
X10400Y14399*
Y14418*
X10419Y14436*
X10456Y14455*
X10494*
X10531Y14436*
X10550Y14418*
Y14399D02*
Y14361D01*
X10700D02*
Y14511D01*
Y14455D02*
X10719Y14493D01*
X10756Y14511*
X10794*
X10831Y14493*
X11038Y14511D02*
X11113D01*
X11075Y14549D02*
Y14380D01*
X11094Y14361*
X11113*
X11131Y14380*
X4400Y14001D02*
Y14226D01*
X4494Y14114*
X4588Y14226*
Y14001*
X4775D02*
Y14151D01*
Y14208D02*
X5150Y14133*
X5113Y14151D01*
X5056*
X5019Y14133*
X5000Y14095*
Y14058*
X5019Y14020*
X5056Y14001*
X5113*
X5150Y14020*
X5300Y14001D02*
Y14226D01*
Y14076D02*
X5356D01*
X5450Y14151*
X5356Y14076D02*
X5450Y14001D01*
X5675D02*
Y14151D01*
Y14208D02*
X6050Y14020*
X6031Y14001D01*
X5994*
X5956*
X5919Y14020*
X5900Y14058*
Y14114*
X5919Y14133*
X5956Y14151*
X5994*
X6031Y14133*
X6050Y14114*
Y14095*
X6031Y14076*
X5994Y14058*
X5956*
X5919Y14076*
X5900Y14095*
X6200Y14151D02*
Y14020D01*
X6219Y14001*
X6256*
X6275Y14020*
Y14076*
Y14020D02*
X6294Y14001D01*
X6331*
X6350Y14020*
Y14151*
X6575Y14001D02*
Y14151D01*
Y14208D02*
X6950Y14133*
X6913Y14151D01*
X6856*
X6819Y14133*
X6800Y14095*
Y14058*
X6819Y14020*
X6856Y14001*
X6913*
X6950Y14020*
X7100Y14151D02*
X7250D01*
X7100Y14001*
X7250*
X8300Y14058D02*
X8319Y14020D01*
X8356Y14001*
X8431*
X8469Y14020*
X8488Y14058*
X8469Y14095*
X8431Y14114*
X8356*
X8319Y14133*
X8300Y14170*
X8319Y14208*
X8356Y14226*
X8431*
X8469Y14208*
X8488Y14170*
X8638Y14151D02*
X8713D01*
X8675Y14189D02*
Y14020D01*
X8694Y14001*
X8713*
X8731Y14020*
X8900Y14001D02*
Y14151D01*
Y14095D02*
X8919Y14133D01*
X8956Y14151*
X8994*
X9031Y14133*
X9200Y14058D02*
X9219Y14020D01*
X9256Y14001*
X9294*
X9331Y14020*
X9350Y14058*
Y14095*
X9331Y14133*
X9294Y14151*
X9256*
X9219Y14133*
X9200Y14095*
Y14058*
X9500Y14001D02*
Y14151D01*
Y14133D02*
X9519Y14151D01*
X9556*
X9575Y14133*
Y14076*
Y14133D02*
X9594Y14151D01*
X9631*
X9650Y14133*
Y14001*
X9875D02*
Y14151D01*
Y14208D02*
X10100Y14001*
Y14151D01*
Y14095D02*
X10119Y14133D01*
X10156Y14151*
X10194*
X10231Y14133*
X10550Y14020D02*
X10531Y14001D01*
X10494*
X10456*
X10419Y14020*
X10400Y14058*
Y14114*
X10419Y14133*
X10456Y14151*
X10494*
X10531Y14133*
X10550Y14114*
Y14095*
X10531Y14076*
X10494Y14058*
X10456*
X10419Y14076*
X10400Y14095*
X4525Y15630D02*
Y15930D01*
X4400D02*
X4650D01*
X5000Y15655D02*
X4975Y15630D01*
X4925*
X4875*
X4825Y15655*
X4800Y15705*
Y15780*
X4825Y15805*
X4875Y15830*
X4925*
X4975Y15805*
X5000Y15780*
Y15755*
X4975Y15730*
X4925Y15705*
X4875*
X4825Y15730*
X4800Y15755*
X5200Y15805D02*
X5250Y15830D01*
X5325*
X5375Y15805*
X5400Y15755*
Y15680*
X5375Y15655*
X5325Y15630*
X5275*
X5225Y15655*
X5200Y15680*
Y15705*
X5225Y15730*
X5275Y15755*
X5325*
X5375Y15730*
X5400Y15705*
Y15680D02*
Y15630D01*
X5600D02*
Y15830D01*
Y15805D02*
X5625Y15830D01*
X5675*
X5700Y15805*
Y15730*
Y15805D02*
X5725Y15830D01*
X5775*
X5800Y15805*
Y15630*
X6400D02*
X6525Y15930D01*
X6650Y15630*
X6450Y15755D02*
X6600D01*
X6975Y15780D02*
X7025Y15755D01*
X7050Y15705*
X7025Y15655*
X6975Y15630*
X6800*
Y15930*
X6975*
X7025Y15905*
X7050Y15855*
X7025Y15805*
X6975Y15780*
X6800*
X7450Y15680D02*
X7425Y15655D01*
X7375Y15630*
X7300*
X7250Y15655*
X7225Y15680*
X7200Y15730*
Y15830*
X7225Y15880*
X7250Y15905*
X7300Y15930*
X7375*
X7425Y15905*
X7450Y15880*
X8200Y15630D02*
X8000Y15855D01*
Y15905*
X8025Y15930*
X8100*
X8125Y15905*
Y15855*
X8000Y15705*
Y15655*
X8025Y15630*
X8125*
X8200Y15705*
X8800Y15630D02*
Y15930D01*
X9050*
X9000Y15780D02*
X8800D01*
Y15630D02*
X9050D01*
X9200D02*
Y15830D01*
Y15755D02*
X9225Y15805D01*
X9275Y15830*
X9325*
X9375Y15805*
X9800Y15655D02*
X9775Y15630D01*
X9725*
X9675*
X9625Y15655*
X9600Y15705*
Y15780*
X9625Y15805*
X9675Y15830*
X9725*
X9775Y15805*
X9800Y15780*
Y15755*
X9775Y15730*
X9725Y15705*
X9675*
X9625Y15730*
X9600Y15755*
X10000Y15705D02*
X10025Y15655D01*
X10075Y15630*
X10125*
X10175Y15655*
X10200Y15705*
Y15755*
X10175Y15805*
X10125Y15830*
X10075*
X10025Y15805*
X10000Y15755*
Y15630D02*
Y15930D01*
X10400Y15830D02*
Y15705D01*
X10425Y15655*
X10475Y15630*
X10525*
X10575Y15655*
X10600Y15705*
Y15830D02*
Y15630D01*
X10800Y15655D02*
X10850Y15630D01*
X10950*
X11000Y15655*
Y15705*
X10950Y15730*
X10850*
X10800Y15755*
Y15805*
X10850Y15830*
X10950*
X11000Y15805*
X11600Y15930D02*
Y15630D01*
X11850*
X12000Y15805D02*
X12050Y15830D01*
X12125*
X12175Y15805*
X12200Y15755*
Y15680*
X12175Y15655*
X12125Y15630*
X12075*
X12025Y15655*
X12000Y15680*
Y15705*
X12025Y15730*
X12075Y15755*
X12125*
X12175Y15730*
X12200Y15705*
Y15680D02*
Y15630D01*
X12400Y15705D02*
X12425Y15655D01*
X12475Y15630*
X12525*
X12575Y15655*
X12600Y15705*
Y15755*
X12575Y15805*
X12525Y15830*
X12475*
X12425Y15805*
X12400Y15755*
Y15630D02*
Y15930D01*
X12800Y15655D02*
X12850Y15630D01*
X12950*
X13000Y15655*
Y15705*
X12950Y15730*
X12850*
X12800Y15755*
Y15805*
X12850Y15830*
X12950*
X13000Y15805*
X4575Y15300D02*
X4625Y15275D01*
X4650Y15225*
X4625Y15175*
X4575Y15150*
X4400*
Y15450*
X4575*
X4625Y15425*
X4650Y15375*
X4625Y15325*
X4575Y15300*
X4400*
X4925Y15150D02*
X4900D01*
Y15450*
X5200Y15225D02*
X5225Y15175D01*
X5275Y15150*
X5325*
X5375Y15175*
X5400Y15225*
Y15275*
X5375Y15325*
X5325Y15350*
X5275*
X5225Y15325*
X5200Y15275*
Y15225*
X5800Y15325D02*
X5750Y15350D01*
X5675*
X5625Y15325*
X5600Y15275*
Y15225*
X5625Y15175*
X5675Y15150*
X5750*
X5800Y15175*
X6000Y15150D02*
Y15450D01*
Y15250D02*
X6075D01*
X6200Y15350*
X6075Y15250D02*
X6200Y15150D01*
X6975Y15300D02*
X7025Y15275D01*
X7050Y15225*
X7025Y15175*
X6975Y15150*
X6800*
Y15450*
X6975*
X7025Y15425*
X7050Y15375*
X7025Y15325*
X6975Y15300*
X6800*
X7200Y15225D02*
X7225Y15175D01*
X7275Y15150*
X7325*
X7375Y15175*
X7400Y15225*
Y15275*
X7375Y15325*
X7325Y15350*
X7275*
X7225Y15325*
X7200Y15275*
Y15225*
X7600Y15325D02*
X7650Y15350D01*
X7725*
X7775Y15325*
X7800Y15275*
Y15200*
X7775Y15175*
X7725Y15150*
X7675*
X7625Y15175*
X7600Y15200*
Y15225*
X7625Y15250*
X7675Y15275*
X7725*
X7775Y15250*
X7800Y15225*
Y15200D02*
Y15150D01*
X8000D02*
Y15350D01*
Y15275D02*
X8025Y15325D01*
X8075Y15350*
X8125*
X8175Y15325*
X8600Y15275D02*
X8575Y15325D01*
X8525Y15350*
X8475*
X8425Y15325*
X8400Y15275*
Y15225*
X8425Y15175*
X8475Y15150*
X8525*
X8575Y15175*
X8600Y15225*
Y15150D02*
Y15450D01*
X9200Y15350D02*
X9300Y15150D01*
X9400Y15350*
X9800Y15150D02*
X9600D01*
X9775Y15325*
X9800Y15375*
X9775Y15425*
X9725Y15450*
X9650*
X9600Y15425*
X4400Y14670D02*
Y14970D01*
X4575*
X4625Y14945*
X4650Y14895*
X4625Y14845*
X4575Y14820*
X4400*
X4800Y14745D02*
X4825Y14695D01*
X4875Y14670*
X4975*
X5025Y14695*
X5050Y14745*
X5025Y14795*
X4975Y14820*
X4875*
X4825Y14845*
X4800Y14895*
X4825Y14945*
X4875Y14970*
X4975*
X5025Y14945*
X5050Y14895*
X5200Y14970D02*
Y14745D01*
X5225Y14695*
X5275Y14670*
X5375*
X5425Y14695*
X5450Y14745*
Y14970*
X6250Y14720D02*
X6225Y14695D01*
X6175Y14670*
X6100*
X6050Y14695*
X6025Y14720*
X6000Y14770*
Y14870*
X6025Y14920*
X6050Y14945*
X6100Y14970*
X6175*
X6225Y14945*
X6250Y14920*
X6400Y14845D02*
X6450Y14870D01*
X6525*
X6575Y14845*
X6600Y14795*
Y14720*
X6575Y14695*
X6525Y14670*
X6475*
X6425Y14695*
X6400Y14720*
Y14745*
X6425Y14770*
X6475Y14795*
X6525*
X6575Y14770*
X6600Y14745*
Y14720D02*
Y14670D01*
X6800Y14870D02*
Y14595D01*
Y14745D02*
X6825Y14695D01*
X6875Y14670*
X6925*
X6975Y14695*
X7000Y14745*
Y14795*
X6975Y14845*
X6925Y14870*
X6875*
X6825Y14845*
X6800Y14795*
Y14745*
X7200Y14695D02*
X7250Y14670D01*
X7350*
X7400Y14695*
Y14745*
X7350Y14770*
X7250*
X7200Y14795*
Y14845*
X7250Y14870*
X7350*
X7400Y14845*
X7650Y14870D02*
X7750D01*
X7700Y14920D02*
Y14695D01*
X7725Y14670*
X7750*
X7775Y14695*
X8000Y14745D02*
X8025Y14695D01*
X8075Y14670*
X8125*
X8175Y14695*
X8200Y14745*
Y14795*
X8175Y14845*
X8125Y14870*
X8075*
X8025Y14845*
X8000Y14795*
Y14745*
X8400Y14670D02*
Y14870D01*
Y14795D02*
X8425Y14845D01*
X8475Y14870*
X8525*
X8575Y14845*
X8600Y14795*
Y14670*
X9000Y14695D02*
X8975Y14670D01*
X8925*
X8875*
X8825Y14695*
X8800Y14745*
Y14820*
X8825Y14845*
X8875Y14870*
X8925*
X8975Y14845*
X9000Y14820*
Y14795*
X8975Y14770*
X8925Y14745*
X8875*
X8825Y14770*
X8800Y14795*
X9800Y14670D02*
X9600D01*
X9775Y14845*
X9800Y14895*
X9775Y14945*
X9725Y14970*
X9650*
X9600Y14945*
X10025Y14695D02*
X10075Y14670D01*
X10125*
X10175Y14695*
X10200Y14745*
Y14895*
X10175Y14945*
X10125Y14970*
X10075*
X10025Y14945*
X10000Y14895*
Y14745*
X10025Y14695*
X10175Y14945*
X10450Y14670D02*
X10550D01*
X10500D02*
Y14970D01*
X10450Y14920*
X10800Y14695D02*
X10850Y14670D01*
X10925*
X10975Y14695*
X11000Y14745*
Y14770*
X10975Y14820*
X10925Y14845*
X10800*
Y14970*
X11000*
X6665Y8005D02*
Y7855D01*
X6765*
Y8005*
X6665*
G36*
Y7855*
X6765*
Y8005*
X6665*
G37*
X11385Y12505D02*
Y12355D01*
X11285*
Y12505*
X11385*
G36*
Y12355*
X11285*
Y12505*
X11385*
G37*
D02*
D71*
X425Y18680D02*
G75*
G03X1525Y17580I1100D01*
G01*
G75*
G03X2625Y18680J1100*
G01*
G75*
G03X2195Y19710I-1458J-4*
G01*
X855*
G75*
G03X425Y18680I1028J-1034*
G01*
X2150Y2774D02*
Y3149D01*
X2463Y2774*
Y3149*
X2650Y2774D02*
Y3149D01*
X2869*
X2931Y3118*
X2963Y3055*
X2931Y2993*
X2869Y2961*
X2650*
X3400Y2774D02*
X3150D01*
X3369Y2993*
X3400Y3055*
X3369Y3118*
X3306Y3149*
X3213*
X3150Y3118*
X2625Y1680D02*
G75*
G03X1525Y2780I-1100D01*
G01*
G75*
G03X425Y1680J-1100*
G01*
G75*
G03X855Y650I1458J4*
G01*
X2195*
G75*
G03X2625Y1680I-1028J1034*
G01*
X2635Y2204D02*
Y2579D01*
X2948Y2204*
Y2579*
X3135Y2204D02*
Y2579D01*
X3354*
X3416Y2548*
X3448Y2485*
X3416Y2423*
X3354Y2391*
X3135*
X3791Y2204D02*
Y2579D01*
X3635Y2329*
X3885*
X2835Y1660D02*
X3215D01*
Y700*
X2835*
Y1660*
X3025Y17774D02*
Y18149D01*
X3244*
X3306Y18118*
X3338Y18055*
X3306Y17993*
X3244Y17961*
X3025*
X3244D02*
X3338Y17774D01*
X3775D02*
X3525D01*
X3744Y17993*
X3775Y18055*
X3744Y18118*
X3681Y18149*
X3588*
X3525Y18118*
X3215Y18700D02*
X2835D01*
Y19660*
X3215*
Y18700*
X4075Y13805D02*
X13275D01*
Y16180*
X4075*
Y13805*
X5838Y11086D02*
X5806Y11055D01*
X5744Y11024*
X5650*
X5588Y11055*
X5556Y11086*
X5525Y11149*
Y11274*
X5556Y11336*
X5588Y11368*
X5650Y11399*
X5744*
X5806Y11368*
X5838Y11336*
X6088Y11024D02*
X6213D01*
X6150D02*
Y11399D01*
X6088Y11336*
X6590Y9700D02*
X6210D01*
Y10660*
X6590*
Y9700*
X8005Y7370D02*
Y6990D01*
X7045*
Y7370*
X8005*
X8275Y6649D02*
Y7024D01*
X8494*
X8556Y6993*
X8588Y6930*
X8556Y6868*
X8494Y6836*
X8275*
X8494D02*
X8588Y6649D01*
X8838D02*
X8963D01*
X8900D02*
Y7024D01*
X8838Y6961*
X12525Y12774D02*
Y13149D01*
X12744*
X12806Y13118*
X12838Y13055*
X12806Y12993*
X12744Y12961*
X12525*
X13025Y12899D02*
Y13024D01*
X13056Y13086*
X13088Y13118*
X13150Y13149*
X13213*
X13275Y13118*
X13306Y13086*
X13338Y13024*
Y12899*
X13306Y12836*
X13275Y12805*
X13213Y12774*
X13150*
X13088Y12805*
X13056Y12836*
X13025Y12899*
X13681Y12774D02*
Y13149D01*
X13525D02*
X13838D01*
X13525Y6774D02*
Y7149D01*
X13838Y6774*
Y7149*
X14025Y6774D02*
Y7149D01*
X14244*
X14306Y7118*
X14338Y7055*
X14306Y6993*
X14244Y6961*
X14025*
X14556Y6805D02*
X14619Y6774D01*
X14681*
X14744Y6805*
X14775Y6868*
X14744Y6930*
X14681Y6961*
X14619*
X14681D02*
X14744Y6993D01*
X14775Y7055*
X14744Y7118*
X14681Y7149*
X14619*
X14556Y7118*
X13650Y4149D02*
Y4524D01*
X13963Y4149*
Y4524*
X14150Y4149D02*
Y4524D01*
X14369*
X14431Y4493*
X14463Y4430*
X14431Y4368*
X14369Y4336*
X14150*
X14650Y4180D02*
X14713Y4149D01*
X14806*
X14869Y4180*
X14900Y4243*
Y4274*
X14869Y4336*
X14806Y4368*
X14650*
Y4524*
X14900*
X14260Y12295D02*
X14790D01*
Y11065*
X14260*
Y12295*
X14525Y12839D02*
Y13214D01*
X14838Y12839*
Y13214*
X15025Y12839D02*
Y13214D01*
X15244*
X15306Y13183*
X15338Y13120*
X15306Y13058*
X15244Y13026*
X15025*
X15588Y12839D02*
X15713D01*
X15650D02*
Y13214D01*
X15588Y13151*
X14625Y5680D02*
G75*
G03X13525Y6780I-1100D01*
G01*
G75*
G03X12425Y5680J-1100*
G01*
G75*
G03X12855Y4650I1458J4*
G01*
X14195*
G75*
G03X14625Y5680I-1028J1034*
G01*
X15715Y4700D02*
X15335D01*
Y5660*
X15715*
Y4700*
X16650Y2399D02*
Y2774D01*
X16869*
X16931Y2743*
X16963Y2680*
X16931Y2618*
X16869Y2586*
X16650*
X16869D02*
X16963Y2399D01*
X17306D02*
Y2774D01*
X17150Y2524*
X17400*
X16775Y17649D02*
Y18024D01*
X16994*
X17056Y17993*
X17088Y17930*
X17056Y17868*
X16994Y17836*
X16775*
X16994D02*
X17088Y17649D01*
X17306Y17680D02*
X17369Y17649D01*
X17431*
X17494Y17680*
X17525Y17743*
X17494Y17805*
X17431Y17836*
X17369*
X17431D02*
X17494Y17868D01*
X17525Y17930*
X17494Y17993*
X17431Y18024*
X17369*
X17306Y17993*
X16900Y3243D02*
X16931Y3180D01*
X16994Y3149*
X17119*
X17181Y3180*
X17213Y3243*
X17181Y3305*
X17119Y3336*
X16994*
X16931Y3368*
X16900Y3430*
X16931Y3493*
X16994Y3524*
X17119*
X17181Y3493*
X17213Y3430*
X17463Y3399D02*
X17588D01*
X17525Y3461D02*
Y3180D01*
X17556Y3149*
X17588*
X17619Y3180*
X17900Y3368D02*
X17963Y3399D01*
X18056*
X18119Y3368*
X18150Y3305*
Y3211*
X18119Y3180*
X18056Y3149*
X17994*
X17931Y3180*
X17900Y3211*
Y3243*
X17931Y3274*
X17994Y3305*
X18056*
X18119Y3274*
X18150Y3243*
Y3211D02*
Y3149D01*
X18463Y3399D02*
X18588D01*
X18525Y3461D02*
Y3180D01*
X18556Y3149*
X18588*
X18619Y3180*
X18900Y3399D02*
Y3243D01*
X18931Y3180*
X18994Y3149*
X19056*
X19119Y3180*
X19150Y3243*
Y3399D02*
Y3149D01*
X19400Y3180D02*
X19463Y3149D01*
X19588*
X19650Y3180*
Y3243*
X19588Y3274*
X19463*
X19400Y3305*
Y3368*
X19463Y3399*
X19588*
X19650Y3368*
X17215Y700D02*
X16835D01*
Y1660*
X17215*
Y700*
Y18700D02*
X16835D01*
Y19660*
X17215*
Y18700*
X17400Y17024D02*
Y17399D01*
X17713*
X17650Y17211D02*
X17400D01*
Y17024D02*
X17713D01*
X17900D02*
Y17274D01*
Y17180D02*
X17931Y17243D01*
X17994Y17274*
X18056*
X18119Y17243*
X18400Y17024D02*
Y17274D01*
Y17180D02*
X18431Y17243D01*
X18494Y17274*
X18556*
X18619Y17243*
X18900Y17118D02*
X18931Y17055D01*
X18994Y17024*
X19056*
X19119Y17055*
X19150Y17118*
Y17180*
X19119Y17243*
X19056Y17274*
X18994*
X18931Y17243*
X18900Y17180*
Y17118*
X19400Y17024D02*
Y17274D01*
Y17180D02*
X19431Y17243D01*
X19494Y17274*
X19556*
X19619Y17243*
X17425Y18680D02*
G75*
G03X18525Y17580I1100D01*
G01*
G75*
G03X19625Y18680J1100*
G01*
G75*
G03X19195Y19710I-1458J-4*
G01*
X17855*
G75*
G03X17425Y18680I1028J-1034*
G01*
X19625Y1680D02*
G75*
G03X18525Y2780I-1100D01*
G01*
G75*
G03X17425Y1680J-1100*
G01*
G75*
G03X17855Y650I1458J4*
G01*
X19195*
G75*
G03X19625Y1680I-1028J1034*
G01*
D02*
D22*
X3525Y4155D02*
Y16205D01*
X455*
Y4155*
X3525*
Y7749D02*
X4025Y7999D01*
X3525Y8249*
X3960Y16680D02*
X16090D01*
Y19500*
X3960*
Y16680*
X7525Y7620D02*
X10525D01*
X7594Y16680D02*
X7844Y16180D01*
X8094Y16680*
X8905Y12740D02*
G75*
G03X9145I120D01*
G01*
X10525D02*
X7525D01*
X12456Y3680D02*
X12206Y4180D01*
X11956Y3680*
X16050D02*
X4000D01*
Y610*
X16050*
Y3680*
X16525Y12611D02*
X16025Y12361D01*
X16525Y12111*
Y16245D02*
Y4115D01*
X19345*
Y16245*
X16525*
D02*
D23*
X3681Y4430D02*
X4056D01*
Y4743*
X4025Y5180D02*
X4056Y5149D01*
Y5086*
Y5024*
X4025Y4961*
X3962Y4930*
X3869*
X3837Y4961*
X3806Y5024*
Y5086*
X3837Y5149*
X3869Y5180*
X3900*
X3931Y5149*
X3962Y5086*
Y5024*
X3931Y4961*
X3900Y4930*
X4056Y5555D02*
X3744D01*
X3712Y5586*
Y5618*
X3744Y5649*
X3837Y5493D02*
Y5618D01*
X3806Y5993D02*
Y6118D01*
X3744Y6055D02*
X4025D01*
X4056Y6086*
Y6118*
X4025Y6149*
X4275Y3899D02*
Y4274D01*
X4463*
X4525Y4243*
X4556Y4211*
X4588Y4149*
Y4024*
X4556Y3961*
X4525Y3930*
X4463Y3899*
X4275*
X4775Y3993D02*
X4806Y3930D01*
X4869Y3899*
X4931*
X4994Y3930*
X5025Y3993*
Y4055*
X4994Y4118*
X4931Y4149*
X4869*
X4806Y4118*
X4775Y4055*
Y3993*
X5275Y4149D02*
Y3930D01*
X5306Y3899*
X5369*
X5400Y3930*
Y4024*
Y3930D02*
X5431Y3899D01*
X5494*
X5525Y3930*
Y4149*
X5775Y3899D02*
Y4149D01*
Y4055D02*
X5806Y4118D01*
X5869Y4149*
X5931*
X5994Y4118*
X6025Y4055*
Y3899*
X6845Y12799D02*
X7095D01*
X6908Y12674D02*
X7033Y12924D01*
X6908D02*
X7033Y12674D01*
X9525Y13149D02*
Y12868D01*
X9556Y12805*
X9619Y12774*
X9744*
X9806Y12805*
X9838Y12868*
Y13149*
X10088Y12774D02*
X10213D01*
X10150D02*
Y13149D01*
X10088Y13086*
X14900Y16524D02*
Y16243D01*
X14931Y16180*
X14994Y16149*
X15119*
X15181Y16180*
X15213Y16243*
Y16524*
X15400Y16399D02*
Y16055D01*
Y16243D02*
X15431Y16180D01*
X15494Y16149*
X15556*
X15619Y16180*
X15650Y16243*
Y16305*
X15619Y16368*
X15556Y16399*
X15494*
X15431Y16368*
X15400Y16305*
Y16243*
X16306Y14055D02*
X15931D01*
Y14274*
X15962Y14336*
X16025Y14368*
X16087Y14336*
X16119Y14274*
Y14055*
Y14274D02*
X16306Y14368D01*
Y14680D02*
X16056D01*
X15962D02*
X16150Y15305*
X16087Y15274D01*
X16056Y15211*
Y15149*
X16087Y15086*
X16150Y15055*
X16181*
X16244Y15086*
X16275Y15149*
Y15211*
X16244Y15274*
X16181Y15305*
X16056D02*
X16306D01*
X16369Y15274*
X16400Y15211*
Y15118*
X16369Y15055*
X16306Y15555D02*
X15931D01*
X16150D02*
X16087Y15586D01*
X16056Y15649*
Y15711*
X16087Y15774*
X16150Y15805*
X16306*
X16056Y16118D02*
Y16243D01*
X15994Y16180D02*
X16275D01*
X16306Y16211*
Y16243*
X16275Y16274*
D02*
D24*
X13525Y9680D02*
Y12680D01*
X12525*
Y9680*
X13525*
X0Y0D02*
M02*
