%FSLAX14Y14*%
%MOIN*%
G04 EasyPC Gerber Version 18.0.1 Build 3581 *
%ADD100R,0.09200X0.09200*%
%ADD103C,0.06400*%
%ADD104C,0.08800*%
%ADD97C,0.09200*%
%AMT101*0 Thermal pad*4,1,6,0.03000,0.01600,0.03000,0.03000,0.01600,0.03000,0.01600,0.04600,0.04600,0.04600,0.04600,0.01600,0.03000,0.01600,0*4,1,6,-0.01600,0.03000,-0.03000,0.03000,-0.03000,0.01600,-0.04600,0.01600,-0.04600,0.04600,-0.01600,0.04600,-0.01600,0.03000,0*4,1,6,-0.03000,-0.01600,-0.03000,-0.03000,-0.01600,-0.03000,-0.01600,-0.04600,-0.04600,-0.04600,-0.04600,-0.01600,-0.03000,-0.01600,0*4,1,6,0.01600,-0.03000,0.03000,-0.03000,0.03000,-0.01600,0.04600,-0.01600,0.04600,-0.04600,0.01600,-0.04600,0.01600,-0.03000,0*%
%ADD101T101*%
%AMT105*0 Thermal pad*7,0,0,0.08800,0.05600,0.03200,0*%
%ADD105T105*%
%AMT98*0 Thermal pad*7,0,0,0.09200,0.06000,0.03200,0*%
%ADD98T98*%
%ADD99C,0.18200*%
%ADD107R,0.11200X0.09200*%
X0Y0D02*
D02*
D97*
X1700Y8544D03*
Y9635D03*
Y10725D03*
X2700Y7999D03*
Y9089D03*
Y10180D03*
Y11271D03*
Y12361D03*
X7844Y2855D03*
Y17505D03*
X8934Y2855D03*
Y17505D03*
X9480Y1855D03*
Y18620D03*
X10025Y2855D03*
Y17505D03*
X10570Y1855D03*
Y18620D03*
X11116Y2855D03*
Y17505D03*
X11661Y1855D03*
Y18620D03*
X12206Y2855D03*
Y17505D03*
X17350Y7999D03*
Y9089D03*
Y10180D03*
Y11271D03*
Y12361D03*
X18465Y8544D03*
Y9635D03*
Y10725D03*
D02*
D98*
X1700Y11816D03*
X8389Y1855D03*
Y18620D03*
X18465Y11816D03*
D02*
D99*
X2315Y5260D03*
Y15100D03*
X5105Y2470D03*
Y17890D03*
X14945Y2470D03*
Y17890D03*
X17735Y5260D03*
Y15100D03*
D02*
D100*
X13025Y10180D03*
Y12180D03*
D02*
D101*
Y11180D03*
D02*
D103*
X1525Y3330D03*
X1725Y7580D03*
X2125Y9080D03*
Y12780D03*
X3425Y10180D03*
Y11930D03*
X3725Y9630D03*
Y10780D03*
X5425Y9530D03*
X5975Y3330D03*
X6525Y6480D03*
Y10880D03*
Y11430D03*
X6825Y2880D03*
Y7180D03*
X7175Y7580D03*
X7775Y7880D03*
Y11880D03*
X7825Y13680D03*
X8075Y8180D03*
Y9180D03*
X8475Y12430D03*
Y16930D03*
X9175Y7280D03*
Y12430D03*
X9475Y2880D03*
Y10930D03*
X9525Y11430D03*
Y18055D03*
X9975Y8480D03*
X10275Y6180D03*
Y10930D03*
X10570Y6480D03*
X10575Y1280D03*
Y18055D03*
X10875Y7580D03*
X11525Y12430D03*
X11675Y16930D03*
X11925Y7380D03*
Y7930D03*
Y12780D03*
X12225Y7680D03*
X12775Y8430D03*
X14075Y1880D03*
Y7580D03*
X15125Y5180D03*
Y6830D03*
Y9430D03*
Y9830D03*
Y11680D03*
X15375Y1480D03*
X15525Y5880D03*
X15925Y9630D03*
X16275Y9230D03*
Y10180D03*
X16575Y8930D03*
Y18180D03*
X16875Y13680D03*
X17025Y1880D03*
X17425Y1180D03*
X17775Y12780D03*
X18475Y7580D03*
X18625Y6830D03*
D02*
D104*
X1025Y10805D03*
X2650Y17680D03*
X5650Y10435D03*
X8900Y1180D03*
X9900Y19430D03*
X19275Y10805D03*
D02*
D105*
X1025Y11805D03*
X3650Y18680D03*
X3775Y780D03*
Y1430D03*
X5025Y9930D03*
Y11230D03*
X7525Y1805D03*
X7900Y19430D03*
X15525Y4180D03*
Y6430D03*
Y11330D03*
X15775Y1055D03*
X16025Y18805D03*
X16325Y4180D03*
X16525Y19480D03*
X19275Y11805D03*
D02*
D107*
X1525Y1180D03*
Y2180D03*
Y18180D03*
Y19180D03*
X13525Y5180D03*
Y6180D03*
X18525Y1180D03*
Y2180D03*
Y18180D03*
Y19180D03*
X0Y0D02*
M02*
