%FSLAX14Y14*%
%MOIN*%
G04 EasyPC Gerber Version 18.0.1 Build 3581 *
%ADD76R,0.03800X0.04500*%
%ADD81R,0.04937X0.05291*%
%ADD80R,0.07000X0.07000*%
%ADD75R,0.07600X0.03000*%
%ADD77R,0.04500X0.03800*%
%ADD78C,0.07000*%
%ADD79C,0.16000*%
%ADD82R,0.09000X0.07000*%
X0Y0D02*
D02*
D75*
X7195Y7930D03*
Y8430D03*
Y8930D03*
Y9430D03*
Y9930D03*
Y10430D03*
Y10930D03*
Y11430D03*
Y11930D03*
Y12430D03*
X10855Y7930D03*
Y8430D03*
Y8930D03*
Y9430D03*
Y9930D03*
Y10430D03*
Y10930D03*
Y11430D03*
Y11930D03*
Y12430D03*
D02*
D76*
X3025Y925D03*
Y1435D03*
Y18925D03*
Y19435D03*
X6400Y9925D03*
Y10435D03*
X15525Y4925D03*
Y5435D03*
X17025Y925D03*
Y1435D03*
Y18925D03*
Y19435D03*
D02*
D77*
X7270Y7180D03*
X7780D03*
D02*
D78*
X1700Y8544D03*
Y9635D03*
Y10725D03*
Y11816D03*
X2700Y7999D03*
Y9089D03*
Y10180D03*
Y11271D03*
Y12361D03*
X7844Y2855D03*
Y17505D03*
X8389Y1855D03*
Y18620D03*
X8934Y2855D03*
Y17505D03*
X9480Y1855D03*
Y18620D03*
X10025Y2855D03*
Y17505D03*
X10570Y1855D03*
Y18620D03*
X11116Y2855D03*
Y17505D03*
X11661Y1855D03*
Y18620D03*
X12206Y2855D03*
Y17505D03*
X17350Y7999D03*
Y9089D03*
Y10180D03*
Y11271D03*
Y12361D03*
X18465Y8544D03*
Y9635D03*
Y10725D03*
Y11816D03*
D02*
D79*
X2315Y5260D03*
Y15100D03*
X5105Y2470D03*
Y17890D03*
X14945Y2470D03*
Y17890D03*
X17735Y5260D03*
Y15100D03*
D02*
D80*
X13025Y10180D03*
Y11180D03*
Y12180D03*
D02*
D81*
X14525Y11330D03*
Y12030D03*
D02*
D82*
X1525Y1180D03*
Y2180D03*
Y18180D03*
Y19180D03*
X13525Y5180D03*
Y6180D03*
X18525Y1180D03*
Y2180D03*
Y18180D03*
Y19180D03*
X0Y0D02*
M02*
