%FSLAX14Y14*%
%MOIN*%
G04 EasyPC Gerber Version 18.0.1 Build 3581 *
%ADD100R,0.09200X0.09200*%
%ADD103C,0.06400*%
%ADD104C,0.08800*%
%ADD97C,0.09200*%
%AMT101*0 Thermal pad*4,1,6,0.03000,0.01600,0.03000,0.03000,0.01600,0.03000,0.01600,0.04600,0.04600,0.04600,0.04600,0.01600,0.03000,0.01600,0*4,1,6,-0.01600,0.03000,-0.03000,0.03000,-0.03000,0.01600,-0.04600,0.01600,-0.04600,0.04600,-0.01600,0.04600,-0.01600,0.03000,0*4,1,6,-0.03000,-0.01600,-0.03000,-0.03000,-0.01600,-0.03000,-0.01600,-0.04600,-0.04600,-0.04600,-0.04600,-0.01600,-0.03000,-0.01600,0*4,1,6,0.01600,-0.03000,0.03000,-0.03000,0.03000,-0.01600,0.04600,-0.01600,0.04600,-0.04600,0.01600,-0.04600,0.01600,-0.03000,0*%
%ADD101T101*%
%AMT105*0 Thermal pad*7,0,0,0.08800,0.05600,0.03200,0*%
%ADD105T105*%
%AMT98*0 Thermal pad*7,0,0,0.09200,0.06000,0.03200,0*%
%ADD98T98*%
%ADD99C,0.18200*%
%ADD107R,0.11200X0.09200*%
X0Y0D02*
D02*
D97*
X1700Y8544D03*
Y9635D03*
Y10725D03*
X2700Y7999D03*
Y9089D03*
Y10180D03*
Y11271D03*
Y12361D03*
X7844Y2855D03*
Y17505D03*
X8934Y2855D03*
Y17505D03*
X9480Y1855D03*
Y18620D03*
X10025Y2855D03*
Y17505D03*
X10570Y1855D03*
Y18620D03*
X11116Y2855D03*
Y17505D03*
X11661Y1855D03*
Y18620D03*
X12206Y2855D03*
Y17505D03*
X17350Y7999D03*
Y9089D03*
Y10180D03*
Y11271D03*
Y12361D03*
X18465Y8544D03*
Y9635D03*
Y10725D03*
D02*
D98*
X1700Y11816D03*
X8389Y1855D03*
Y18620D03*
X18465Y11816D03*
D02*
D99*
X2315Y5260D03*
Y15100D03*
X5105Y2470D03*
Y17890D03*
X14945Y2470D03*
Y17890D03*
X17735Y5260D03*
Y15100D03*
D02*
D100*
X12900Y8805D03*
Y10805D03*
D02*
D101*
Y9805D03*
D02*
D103*
X1125Y8530D03*
Y11330D03*
X1525Y3680D03*
X2125Y6830D03*
Y12380D03*
X2725Y10730D03*
X3150Y7130D03*
X5150Y11330D03*
Y12055D03*
X5925Y6430D03*
Y6830D03*
X6025Y12430D03*
X6225Y2280D03*
Y8305D03*
X6525Y10330D03*
X6675Y2880D03*
Y5930D03*
X7025Y12805D03*
Y13305D03*
Y17530D03*
X7325Y1280D03*
Y19180D03*
X7925Y10330D03*
X8225Y10630D03*
X8475Y3280D03*
X9175Y6630D03*
Y11330D03*
X9475Y7305D03*
Y17530D03*
X9775Y9530D03*
X10375Y7830D03*
X10525Y16805D03*
X10575Y1280D03*
Y19180D03*
X11125Y16305D03*
X11675Y11330D03*
Y12055D03*
X12225Y2280D03*
Y7330D03*
X13525Y10230D03*
X14075Y1880D03*
Y8630D03*
Y11830D03*
X14975Y6830D03*
Y9080D03*
Y16305D03*
X15325Y7930D03*
Y10180D03*
X15625Y8230D03*
X15825Y1580D03*
X16925Y9630D03*
Y11930D03*
X17025Y1880D03*
X17425Y1180D03*
X18700Y16805D03*
D02*
D104*
X5875Y9330D03*
X8025D03*
X8225Y5930D03*
X11675Y8830D03*
D02*
D105*
X3525Y1430D03*
Y18930D03*
X5425Y8880D03*
X11675Y9780D03*
X14575Y9980D03*
X16025Y4930D03*
X16525Y930D03*
Y18930D03*
D02*
D107*
X1525Y1180D03*
Y2180D03*
Y18180D03*
Y19180D03*
X13525Y5180D03*
Y6180D03*
X18525Y1180D03*
Y2180D03*
Y18180D03*
Y19180D03*
X0Y0D02*
M02*
