G04 This is an RS-274x file exported by *
G04 gerbv version 2.6.1 *
G04 More information is available about gerbv at *
G04 http://gerbv.geda-project.org/ *
G04 --End of header info--*
%MOIN*%
%FSLAX34Y34*%
%IPPOS*%
G04 --Define apertures--*
%ADD10C,0.0600*%
%ADD11R,0.0600X0.0600*%
%ADD12C,0.0560*%
%ADD13C,0.1500*%
%ADD14C,0.0150*%
%ADD15R,0.0800X0.0600*%
%ADD16C,0.0320*%
%ADD17C,0.0080*%
G04 --Start main section--*
G54D10*
G01X0001700Y0008544D03*
G01X0001700Y0009635D03*
G01X0001700Y0010725D03*
G01X0001700Y0011816D03*
G01X0002700Y0007999D03*
G01X0002700Y0009089D03*
G01X0002700Y0010180D03*
G01X0002700Y0011271D03*
G01X0002700Y0012361D03*
G01X0007844Y0002855D03*
G01X0007844Y0017505D03*
G01X0008389Y0001855D03*
G01X0008389Y0018620D03*
G01X0008934Y0002855D03*
G01X0008934Y0017505D03*
G01X0009480Y0001855D03*
G01X0009480Y0018620D03*
G01X0010025Y0002855D03*
G01X0010025Y0017505D03*
G01X0010570Y0001855D03*
G01X0010570Y0018620D03*
G01X0011116Y0002855D03*
G01X0011116Y0017505D03*
G01X0011661Y0001855D03*
G01X0011661Y0018620D03*
G01X0012206Y0002855D03*
G01X0012206Y0017505D03*
G01X0017350Y0007999D03*
G01X0017350Y0009089D03*
G01X0017350Y0010180D03*
G01X0017350Y0011271D03*
G01X0017350Y0012361D03*
G01X0018465Y0008544D03*
G01X0018465Y0009635D03*
G01X0018465Y0010725D03*
G01X0018465Y0011816D03*
G54D11*
G01X0013025Y0010180D03*
G01X0013025Y0011180D03*
G01X0013025Y0012180D03*
G54D12*
G01X0001025Y0010805D03*
G01X0001025Y0011805D03*
G01X0002650Y0017680D03*
G01X0003650Y0018680D03*
G01X0003775Y0000780D03*
G01X0003775Y0001430D03*
G01X0005025Y0009930D03*
G01X0005025Y0011230D03*
G01X0005650Y0010435D03*
G01X0007525Y0001805D03*
G01X0007900Y0019430D03*
G01X0008900Y0001180D03*
G01X0009900Y0019430D03*
G01X0015525Y0004180D03*
G01X0015525Y0006430D03*
G01X0015525Y0011330D03*
G01X0015775Y0001055D03*
G01X0016025Y0018805D03*
G01X0016325Y0004180D03*
G01X0016525Y0019480D03*
G01X0019275Y0010805D03*
G01X0019275Y0011805D03*
G54D14*
G01X0003775Y0001430D02*
G01X0003775Y0000780D01*
G01X0005025Y0011230D02*
G01X0005025Y0009930D01*
G01X0015525Y0011330D02*
G01X0015525Y0006430D01*
G01X0016325Y0004180D02*
G01X0016325Y0001055D01*
G01X0016325Y0001055D02*
G01X0015775Y0001055D01*
G54D13*
G01X0002315Y0005260D03*
G01X0002315Y0015100D03*
G01X0005105Y0002470D03*
G01X0005105Y0017890D03*
G01X0014945Y0002470D03*
G01X0014945Y0017890D03*
G01X0017735Y0005260D03*
G01X0017735Y0015100D03*
G54D15*
G01X0001525Y0001180D03*
G01X0001525Y0002180D03*
G01X0001525Y0018180D03*
G01X0001525Y0019180D03*
G01X0013525Y0005180D03*
G01X0013525Y0006180D03*
G01X0018525Y0001180D03*
G01X0018525Y0002180D03*
G01X0018525Y0018180D03*
G01X0018525Y0019180D03*
G54D16*
G01X0001525Y0003330D03*
G01X0001725Y0007580D03*
G01X0002125Y0009080D03*
G01X0002125Y0012780D03*
G01X0003425Y0010180D03*
G01X0003425Y0011930D03*
G01X0003725Y0009630D03*
G01X0003725Y0010780D03*
G01X0005425Y0009530D03*
G01X0005975Y0003330D03*
G01X0006525Y0006480D03*
G01X0006525Y0010880D03*
G01X0006525Y0011430D03*
G01X0006825Y0002880D03*
G01X0006825Y0007180D03*
G01X0007175Y0007580D03*
G01X0007775Y0007880D03*
G01X0007775Y0011880D03*
G01X0007825Y0013680D03*
G01X0008075Y0008180D03*
G01X0008075Y0009180D03*
G01X0008475Y0012430D03*
G01X0008475Y0016930D03*
G01X0009175Y0007280D03*
G01X0009175Y0012430D03*
G01X0009475Y0002880D03*
G01X0009475Y0010930D03*
G01X0009525Y0011430D03*
G01X0009525Y0018055D03*
G01X0009975Y0008480D03*
G01X0010275Y0006180D03*
G01X0010275Y0010930D03*
G01X0010570Y0006480D03*
G01X0010575Y0001280D03*
G01X0010575Y0018055D03*
G01X0010875Y0007580D03*
G01X0011525Y0012430D03*
G01X0011675Y0016930D03*
G01X0011925Y0007380D03*
G01X0011925Y0007930D03*
G01X0011925Y0012780D03*
G01X0012225Y0007680D03*
G01X0012775Y0008430D03*
G01X0014075Y0001880D03*
G01X0014075Y0007580D03*
G01X0015125Y0005180D03*
G01X0015125Y0006830D03*
G01X0015125Y0009430D03*
G01X0015125Y0009830D03*
G01X0015125Y0011680D03*
G01X0015375Y0001480D03*
G01X0015525Y0005880D03*
G01X0015925Y0009630D03*
G01X0016275Y0009230D03*
G01X0016275Y0010180D03*
G01X0016575Y0008930D03*
G01X0016575Y0018180D03*
G01X0016875Y0013680D03*
G01X0017025Y0001880D03*
G01X0017425Y0001180D03*
G01X0017775Y0012780D03*
G01X0018475Y0007580D03*
G01X0018625Y0006830D03*
G54D17*
G01X0001525Y0003330D02*
G01X0001525Y0002180D01*
G01X0001725Y0007580D02*
G01X0001700Y0007580D01*
G01X0001700Y0007580D02*
G01X0001700Y0008544D01*
G01X0002125Y0009080D02*
G01X0002125Y0012780D01*
G01X0003425Y0011930D02*
G01X0003425Y0010180D01*
G01X0003725Y0010780D02*
G01X0003725Y0009630D01*
G01X0005425Y0009530D02*
G01X0005425Y0003330D01*
G01X0005425Y0003330D02*
G01X0005975Y0003330D01*
G01X0006525Y0010880D02*
G01X0006525Y0006480D01*
G01X0006525Y0011430D02*
G01X0006525Y0010880D01*
G01X0006825Y0007180D02*
G01X0006825Y0002880D01*
G01X0007175Y0012361D02*
G01X0002700Y0012361D01*
G01X0007175Y0012361D02*
G01X0007175Y0007580D01*
G01X0007175Y0012361D02*
G01X0007844Y0012361D01*
G01X0007844Y0012361D02*
G01X0007844Y0017505D01*
G01X0007775Y0011880D02*
G01X0007775Y0007880D01*
G01X0007825Y0013680D02*
G01X0007825Y0017780D01*
G01X0007825Y0017780D02*
G01X0007844Y0017505D01*
G01X0008075Y0008180D02*
G01X0008075Y0009180D01*
G01X0008475Y0012430D02*
G01X0008475Y0016930D01*
G01X0009175Y0012430D02*
G01X0009175Y0007280D01*
G01X0009475Y0010930D02*
G01X0009475Y0002880D01*
G01X0009525Y0011430D02*
G01X0009525Y0018055D01*
G01X0009975Y0008480D02*
G01X0009975Y0017505D01*
G01X0009975Y0017505D02*
G01X0010025Y0017505D01*
G01X0010275Y0010930D02*
G01X0010275Y0006180D01*
G01X0010570Y0001855D02*
G01X0010575Y0001855D01*
G01X0010575Y0001855D02*
G01X0010575Y0001280D01*
G01X0010570Y0001855D02*
G01X0010570Y0006480D01*
G01X0010575Y0018055D02*
G01X0010575Y0018880D01*
G01X0010575Y0018880D02*
G01X0010570Y0018620D01*
G01X0010875Y0007580D02*
G01X0011116Y0007580D01*
G01X0011116Y0007580D02*
G01X0011116Y0017505D01*
G01X0011525Y0012430D02*
G01X0011525Y0002855D01*
G01X0011525Y0002855D02*
G01X0011116Y0002855D01*
G01X0011675Y0016930D02*
G01X0011675Y0018880D01*
G01X0011675Y0018880D02*
G01X0011661Y0018620D01*
G01X0011925Y0007380D02*
G01X0011775Y0007380D01*
G01X0011775Y0007380D02*
G01X0011775Y0001855D01*
G01X0011775Y0001855D02*
G01X0011661Y0001855D01*
G01X0011925Y0007930D02*
G01X0011925Y0012780D01*
G01X0012225Y0007680D02*
G01X0012225Y0002855D01*
G01X0012225Y0002855D02*
G01X0012206Y0002855D01*
G01X0012775Y0008430D02*
G01X0012206Y0008430D01*
G01X0012206Y0008430D02*
G01X0012206Y0017505D01*
G01X0014075Y0001880D02*
G01X0014075Y0007580D01*
G01X0015125Y0009430D02*
G01X0015125Y0006830D01*
G01X0015125Y0011680D02*
G01X0015125Y0009830D01*
G01X0015375Y0001480D02*
G01X0015925Y0001480D01*
G01X0015925Y0001480D02*
G01X0015925Y0009630D01*
G01X0015525Y0005880D02*
G01X0015125Y0005880D01*
G01X0015125Y0005880D02*
G01X0015125Y0005180D01*
G01X0016275Y0009230D02*
G01X0016275Y0010180D01*
G01X0016575Y0008930D02*
G01X0016575Y0018180D01*
G01X0016875Y0013680D02*
G01X0017350Y0013680D01*
G01X0017350Y0013680D02*
G01X0017350Y0012361D01*
G01X0017425Y0001180D02*
G01X0017025Y0001180D01*
G01X0017025Y0001180D02*
G01X0017025Y0001880D01*
G01X0017775Y0012780D02*
G01X0017775Y0009080D01*
G01X0017775Y0009080D02*
G01X0017375Y0009080D01*
G01X0017375Y0009080D02*
G01X0017350Y0009089D01*
G01X0018475Y0007580D02*
G01X0018475Y0008530D01*
G01X0018475Y0008530D02*
G01X0018465Y0008544D01*
G01X0018625Y0006830D02*
G01X0018625Y0002180D01*
G01X0018625Y0002180D02*
G01X0018525Y0002180D01*
M02*
