%FSLAX14Y14*%
%MOIN*%
G04 EasyPC Gerber Version 18.0.1 Build 3581 *
%ADD26R,0.02800X0.03500*%
%ADD29R,0.03937X0.04291*%
%ADD14R,0.06000X0.06000*%
%ADD74C,0.00800*%
%ADD70C,0.01500*%
%ADD73C,0.03200*%
%ADD17C,0.05600*%
%ADD13C,0.06000*%
%ADD25R,0.06600X0.02000*%
%ADD27R,0.03500X0.02800*%
%ADD28C,0.15000*%
%ADD72R,0.08000X0.06000*%
X0Y0D02*
D02*
D13*
X1700Y8544D03*
Y9635D03*
Y10725D03*
Y11816D03*
X2700Y7999D03*
Y9089D03*
Y10180D03*
Y11271D03*
Y12361D03*
X7844Y2855D03*
Y17505D03*
X8389Y1855D03*
Y18620D03*
X8934Y2855D03*
Y17505D03*
X9480Y1855D03*
Y18620D03*
X10025Y2855D03*
Y17505D03*
X10570Y1855D03*
Y18620D03*
X11116Y2855D03*
Y17505D03*
X11661Y1855D03*
Y18620D03*
X12206Y2855D03*
Y17505D03*
X17350Y7999D03*
Y9089D03*
Y10180D03*
Y11271D03*
Y12361D03*
X18465Y8544D03*
Y9635D03*
Y10725D03*
Y11816D03*
D02*
D14*
X13025Y10180D03*
Y11180D03*
Y12180D03*
D02*
D17*
X1025Y10805D03*
Y11805D03*
X2650Y17680D03*
X3650Y18680D03*
X3775Y780D03*
Y1430D03*
X5025Y9930D03*
Y11230D03*
X5650Y10435D03*
X7525Y1805D03*
X7900Y19430D03*
X8900Y1180D03*
X9900Y19430D03*
X15525Y4180D03*
Y6430D03*
Y11330D03*
X15775Y1055D03*
X16025Y18805D03*
X16325Y4180D03*
X16525Y19480D03*
X19275Y10805D03*
Y11805D03*
D02*
D70*
X1025Y10805D02*
X1620D01*
X1700Y10725*
X1525Y18180D02*
X2150D01*
X2650Y17680*
X1700Y11816D02*
X3075D01*
Y11580*
X5025*
Y11230*
X1700Y11816D02*
X1689Y11805D01*
X1025*
X3775Y1430D02*
X3770Y1435D01*
X3025*
X5025Y9930D02*
X6425D01*
X6400Y9925*
X7190*
X7195Y9930*
X6400Y10435D02*
X5650D01*
X6400D02*
X7190D01*
X7195Y10430*
X7525Y1805D02*
X8339D01*
X7900Y19430D02*
X8389Y18941D01*
Y18620*
X8900Y1180D02*
Y1275D01*
X9480Y1855*
Y18620D02*
Y19010D01*
X9900Y19430*
X10855Y10430D02*
X7675D01*
Y9930*
X7195*
X13025Y10180D02*
X11525D01*
Y9930*
X10855*
X13025Y11180D02*
X11825D01*
Y10430*
X10855*
X13025Y11180D02*
X14375D01*
X14525Y11330*
X15525Y4180D02*
X16325D01*
X15525D02*
Y4925D01*
Y6430D02*
X16075D01*
Y4930*
X15525*
Y4925*
Y11330D02*
X14525D01*
X15775Y1055D02*
X15905Y925D01*
X17025*
X16525Y19480D02*
Y18930D01*
X17025*
Y18925*
X16145*
X16025Y18805*
X18465Y10725D02*
X19195D01*
X19275Y10805*
X18465Y11816D02*
X15525D01*
Y11330*
X18465Y11816D02*
X19264D01*
X19275Y11805*
D02*
D25*
X7195Y7930D03*
Y8430D03*
Y8930D03*
Y9430D03*
Y9930D03*
Y10430D03*
Y10930D03*
Y11430D03*
Y11930D03*
Y12430D03*
X10855Y7930D03*
Y8430D03*
Y8930D03*
Y9430D03*
Y9930D03*
Y10430D03*
Y10930D03*
Y11430D03*
Y11930D03*
Y12430D03*
D02*
D26*
X3025Y925D03*
Y1435D03*
Y18925D03*
Y19435D03*
X6400Y9925D03*
Y10435D03*
X15525Y4925D03*
Y5435D03*
X17025Y925D03*
Y1435D03*
Y18925D03*
Y19435D03*
D02*
D27*
X7270Y7180D03*
X7780D03*
D02*
D28*
X2315Y5260D03*
Y15100D03*
X5105Y2470D03*
Y17890D03*
X14945Y2470D03*
Y17890D03*
X17735Y5260D03*
Y15100D03*
D02*
D29*
X14525Y11330D03*
Y12030D03*
D02*
D72*
X1525Y1180D03*
Y2180D03*
Y18180D03*
Y19180D03*
X13525Y5180D03*
Y6180D03*
X18525Y1180D03*
Y2180D03*
Y18180D03*
Y19180D03*
D02*
D73*
X1525Y3330D03*
X1725Y7580D03*
X2125Y9080D03*
Y12780D03*
X3425Y10180D03*
Y11930D03*
X3725Y9630D03*
Y10780D03*
X5425Y9530D03*
X5975Y3330D03*
X6525Y6480D03*
Y10880D03*
Y11430D03*
X6825Y2880D03*
Y7180D03*
X7175Y7580D03*
X7775Y7880D03*
Y11880D03*
X7825Y13680D03*
X8075Y8180D03*
Y9180D03*
X8475Y12430D03*
Y16930D03*
X9175Y7280D03*
Y12430D03*
X9475Y2880D03*
Y10930D03*
X9525Y11430D03*
Y18055D03*
X9975Y8480D03*
X10275Y6180D03*
Y10930D03*
X10570Y6480D03*
X10575Y1280D03*
Y18055D03*
X10875Y7580D03*
X11525Y12430D03*
X11675Y16930D03*
X11925Y7380D03*
Y7930D03*
Y12780D03*
X12225Y7680D03*
X12775Y8430D03*
X14075Y1880D03*
Y7580D03*
X15125Y5180D03*
Y6830D03*
Y9430D03*
Y9830D03*
Y11680D03*
X15375Y1480D03*
X15525Y5880D03*
X15925Y9630D03*
X16275Y9230D03*
Y10180D03*
X16575Y8930D03*
Y18180D03*
X16875Y13680D03*
X17025Y1880D03*
X17425Y1180D03*
X17775Y12780D03*
X18475Y7580D03*
X18625Y6830D03*
D02*
D74*
X2125Y9080D02*
X2700D01*
Y9089*
X3025Y925D02*
Y930D01*
X2625*
Y1180*
X1525*
X3025Y19435D02*
Y19730D01*
X2625*
Y19180*
X1525*
X3425Y10180D02*
X2700D01*
X3425Y11930D02*
X7195D01*
X3650Y18680D02*
X3270D01*
X3025Y18925*
X3725Y9630D02*
X1725D01*
X1700Y9635*
X5975Y3330D02*
X1525D01*
X6525Y6480D02*
X10570D01*
X6525Y10880D02*
X5225D01*
Y10780*
X3725*
X6525Y11430D02*
X7195D01*
X6825Y2880D02*
X7825D01*
X7844Y2855*
X6825Y7180D02*
X7270D01*
X7175Y7930D02*
X7195D01*
X7175D02*
X6825D01*
Y7180*
X7175Y7930D02*
Y7580D01*
X7195Y9430D02*
X6075D01*
Y7980*
X2725*
X2700Y7999*
X7195Y11430D02*
X9525D01*
X7775Y7880D02*
Y8180D01*
X6225*
Y7580*
X1725*
X7775Y12430D02*
X7195D01*
X7775D02*
Y11880D01*
Y12430D02*
X8475D01*
X8075Y9180D02*
Y9430D01*
X7195*
X8339Y1805D02*
X8389Y1855D01*
X8475Y16930D02*
X11675D01*
X9175Y12430D02*
X8475D01*
X9475Y2880D02*
X10025D01*
Y2855*
X9475Y10930D02*
X7195D01*
X9525Y18055D02*
X10575D01*
X9975Y8480D02*
X7775D01*
Y8430*
X7195*
X10275Y6180D02*
X13525D01*
X10275Y10930D02*
X10855D01*
X10575Y1280D02*
X15375D01*
Y1480*
X10855Y12430D02*
X10835D01*
Y12780*
X2125*
X10875Y7930D02*
X10855D01*
X10875D02*
X11925D01*
X10875D02*
Y7580D01*
X11525Y12430D02*
X10855D01*
X11925Y7380D02*
Y7280D01*
X9175*
X11925Y12780D02*
X17775D01*
X12225Y7680D02*
Y8230D01*
X11325*
Y8180*
X8075*
X12775Y8430D02*
X10855D01*
X12775D02*
X17350D01*
Y7999*
X13025Y12180D02*
Y11930D01*
X10855*
X13025Y12180D02*
X14525D01*
Y12030*
X14075Y1880D02*
X11661D01*
Y1855*
X14075Y7580D02*
X18475D01*
X15125Y5180D02*
X13525D01*
X15125Y6830D02*
X18625D01*
X15125Y9430D02*
X10855D01*
X15125Y9830D02*
X13475D01*
Y9680*
X6675*
Y9630*
X5425*
Y9530*
X15125Y11680D02*
X11325D01*
Y11430*
X10855*
X15525Y5880D02*
Y5435D01*
X15925Y9630D02*
X18475D01*
X18465Y9635*
X16275Y9230D02*
Y9080D01*
X11325*
Y9180*
X9675*
Y8680*
X7215*
Y8930*
X7195*
X16275Y10180D02*
X17350D01*
X16575Y8930D02*
X10855D01*
X16575Y18180D02*
X18525D01*
X16875Y13680D02*
X7825D01*
X17025Y1880D02*
Y1435D01*
Y19435D02*
Y19730D01*
X17425*
Y19180*
X18525*
X17425Y1180D02*
X18525D01*
X0Y0D02*
M02*
