%FSLAX14Y14*%
%MOIN*%
G04 EasyPC Gerber Version 18.0.1 Build 3581 *
%ADD14R,0.06000X0.06000*%
%ADD74C,0.00800*%
%ADD70C,0.01500*%
%ADD73C,0.03200*%
%ADD17C,0.05600*%
%ADD13C,0.06000*%
%ADD28C,0.15000*%
%ADD72R,0.08000X0.06000*%
X0Y0D02*
D02*
D13*
X1700Y8544D03*
Y9635D03*
Y10725D03*
Y11816D03*
X2700Y7999D03*
Y9089D03*
Y10180D03*
Y11271D03*
Y12361D03*
X7844Y2855D03*
Y17505D03*
X8389Y1855D03*
Y18620D03*
X8934Y2855D03*
Y17505D03*
X9480Y1855D03*
Y18620D03*
X10025Y2855D03*
Y17505D03*
X10570Y1855D03*
Y18620D03*
X11116Y2855D03*
Y17505D03*
X11661Y1855D03*
Y18620D03*
X12206Y2855D03*
Y17505D03*
X17350Y7999D03*
Y9089D03*
Y10180D03*
Y11271D03*
Y12361D03*
X18465Y8544D03*
Y9635D03*
Y10725D03*
Y11816D03*
D02*
D14*
X13025Y10180D03*
Y11180D03*
Y12180D03*
D02*
D17*
X1025Y10805D03*
Y11805D03*
X2650Y17680D03*
X3650Y18680D03*
X3775Y780D03*
Y1430D03*
X5025Y9930D03*
Y11230D03*
X5650Y10435D03*
X7525Y1805D03*
X7900Y19430D03*
X8900Y1180D03*
X9900Y19430D03*
X15525Y4180D03*
Y6430D03*
Y11330D03*
X15775Y1055D03*
X16025Y18805D03*
X16325Y4180D03*
X16525Y19480D03*
X19275Y10805D03*
Y11805D03*
D02*
D70*
X3775Y1430D02*
Y780D01*
X5025Y11230D02*
Y9930D01*
X15525Y11330D02*
Y6430D01*
X16325Y4180D02*
Y1055D01*
X15775*
D02*
D28*
X2315Y5260D03*
Y15100D03*
X5105Y2470D03*
Y17890D03*
X14945Y2470D03*
Y17890D03*
X17735Y5260D03*
Y15100D03*
D02*
D72*
X1525Y1180D03*
Y2180D03*
Y18180D03*
Y19180D03*
X13525Y5180D03*
Y6180D03*
X18525Y1180D03*
Y2180D03*
Y18180D03*
Y19180D03*
D02*
D73*
X1525Y3330D03*
X1725Y7580D03*
X2125Y9080D03*
Y12780D03*
X3425Y10180D03*
Y11930D03*
X3725Y9630D03*
Y10780D03*
X5425Y9530D03*
X5975Y3330D03*
X6525Y6480D03*
Y10880D03*
Y11430D03*
X6825Y2880D03*
Y7180D03*
X7175Y7580D03*
X7775Y7880D03*
Y11880D03*
X7825Y13680D03*
X8075Y8180D03*
Y9180D03*
X8475Y12430D03*
Y16930D03*
X9175Y7280D03*
Y12430D03*
X9475Y2880D03*
Y10930D03*
X9525Y11430D03*
Y18055D03*
X9975Y8480D03*
X10275Y6180D03*
Y10930D03*
X10570Y6480D03*
X10575Y1280D03*
Y18055D03*
X10875Y7580D03*
X11525Y12430D03*
X11675Y16930D03*
X11925Y7380D03*
Y7930D03*
Y12780D03*
X12225Y7680D03*
X12775Y8430D03*
X14075Y1880D03*
Y7580D03*
X15125Y5180D03*
Y6830D03*
Y9430D03*
Y9830D03*
Y11680D03*
X15375Y1480D03*
X15525Y5880D03*
X15925Y9630D03*
X16275Y9230D03*
Y10180D03*
X16575Y8930D03*
Y18180D03*
X16875Y13680D03*
X17025Y1880D03*
X17425Y1180D03*
X17775Y12780D03*
X18475Y7580D03*
X18625Y6830D03*
D02*
D74*
X1525Y3330D02*
Y2180D01*
X1725Y7580D02*
X1700D01*
Y8544*
X2125Y9080D02*
Y12780D01*
X3425Y11930D02*
Y10180D01*
X3725Y10780D02*
Y9630D01*
X5425Y9530D02*
Y3330D01*
X5975*
X6525Y10880D02*
Y6480D01*
Y11430D02*
Y10880D01*
X6825Y7180D02*
Y2880D01*
X7175Y12361D02*
X2700D01*
X7175D02*
Y7580D01*
Y12361D02*
X7844D01*
Y17505*
X7775Y11880D02*
Y7880D01*
X7825Y13680D02*
Y17780D01*
X7844Y17505*
X8075Y8180D02*
Y9180D01*
X8475Y12430D02*
Y16930D01*
X9175Y12430D02*
Y7280D01*
X9475Y10930D02*
Y2880D01*
X9525Y11430D02*
Y18055D01*
X9975Y8480D02*
Y17505D01*
X10025*
X10275Y10930D02*
Y6180D01*
X10570Y1855D02*
X10575D01*
Y1280*
X10570Y1855D02*
Y6480D01*
X10575Y18055D02*
Y18880D01*
X10570Y18620*
X10875Y7580D02*
X11116D01*
Y17505*
X11525Y12430D02*
Y2855D01*
X11116*
X11675Y16930D02*
Y18880D01*
X11661Y18620*
X11925Y7380D02*
X11775D01*
Y1855*
X11661*
X11925Y7930D02*
Y12780D01*
X12225Y7680D02*
Y2855D01*
X12206*
X12775Y8430D02*
X12206D01*
Y17505*
X14075Y1880D02*
Y7580D01*
X15125Y9430D02*
Y6830D01*
Y11680D02*
Y9830D01*
X15375Y1480D02*
X15925D01*
Y9630*
X15525Y5880D02*
X15125D01*
Y5180*
X16275Y9230D02*
Y10180D01*
X16575Y8930D02*
Y18180D01*
X16875Y13680D02*
X17350D01*
Y12361*
X17425Y1180D02*
X17025D01*
Y1880*
X17775Y12780D02*
Y9080D01*
X17375*
X17350Y9089*
X18475Y7580D02*
Y8530D01*
X18465Y8544*
X18625Y6830D02*
Y2180D01*
X18525*
X0Y0D02*
M02*
