%
M48
M72
T01C0.03150
T02C0.03200
T03C0.03937
T04C0.04000
T05C0.07950
T06C0.08000
T07C0.13000
%
T01
X33189Y240000
X41063Y240000
X48937Y240000
X56811Y240000
X108189Y240000
X116063Y240000
X123937Y240000
X131811Y240000
X208189Y240000
X216063Y240000
X223937Y240000
X231811Y240000
X288189Y240000
X296063Y240000
X303937Y240000
X311811Y240000
T02
X10000Y25000
X20000Y25000
X35000Y25000
X42500Y20000
X35000Y15000
X55000Y15000
X65000Y15000
X35000Y45000
X42500Y50000
X35000Y55000
X20000Y55000
X10000Y55000
X55000Y50000
X65000Y50000
X120000Y50000
X130000Y50000
X140000Y50000
X150000Y50000
X245000Y45000
X255000Y45000
X285000Y45000
X295000Y45000
X325000Y45000
X335000Y45000
X330000Y110000
X320000Y110000
X310000Y110000
X340000Y110000
X335000Y240000
X335000Y250000
X260000Y250000
X260000Y240000
T03
X245000Y262500
X245000Y272500
X235000Y272500
X235000Y262500
X225000Y262500
X225000Y272500
X215000Y272500
X215000Y262500
X205000Y262500
X205000Y272500
X195000Y272500
X195000Y262500
X185000Y262500
X185000Y272500
X175000Y272500
X175000Y262500
X165000Y262500
X165000Y272500
X155000Y272500
X155000Y262500
X145000Y262500
X145000Y272500
X135000Y272500
X135000Y262500
X125000Y262500
X125000Y272500
X115000Y272500
X115000Y262500
X105000Y262500
X105000Y272500
X95000Y272500
X95000Y262500
X85000Y262500
X85000Y272500
X75000Y272500
X75000Y262500
X65000Y262500
X65000Y272500
X55000Y272500
X55000Y262500
X45000Y262500
X45000Y272500
X35000Y272500
X35000Y262500
X25000Y262500
X25000Y272500
X25000Y82500
X25000Y72500
X35000Y72500
X35000Y82500
X45000Y82500
X45000Y72500
X55000Y72500
X55000Y82500
X65000Y82500
X65000Y72500
X75000Y72500
X75000Y82500
X85000Y82500
X85000Y72500
X95000Y72500
X95000Y82500
X105000Y82500
X105000Y72500
X115000Y72500
X115000Y82500
X125000Y82500
X125000Y72500
X135000Y72500
X135000Y82500
X145000Y82500
X145000Y72500
X155000Y72500
X155000Y82500
X165000Y82500
X165000Y72500
X175000Y72500
X175000Y82500
X185000Y82500
X185000Y72500
X195000Y72500
X195000Y82500
X205000Y82500
X205000Y72500
X215000Y72500
X215000Y82500
X225000Y82500
X225000Y72500
X235000Y72500
X235000Y82500
X245000Y82500
X245000Y72500
X290000Y75000
X300000Y75000
X310000Y75000
T04
X307200Y28900
X292800Y28900
X292800Y11100
X307200Y11100
X332800Y11100
X332800Y28900
X267200Y28900
X252800Y28900
X252800Y11100
X267200Y11100
X227200Y11100
X227200Y28900
X166600Y35000
X155800Y35000
X145000Y35000
X134200Y35000
X123400Y35000
X128800Y25000
X139600Y25000
X150400Y25000
X161200Y25000
T05
X185000Y125000
X145000Y165000
X105000Y125000
X105000Y205000
X185000Y205000
X225000Y165000
X265000Y125000
X305000Y165000
X265000Y205000
T06
X305000Y300000
X50000Y305000
T07
X95700Y30000
X194300Y30000
M30
