%FSLAX23Y23*%
%MOIN*%
G04 EasyPC Gerber Version 18.0.1 Build 3581 *
%ADD14R,0.06000X0.06000*%
%ADD12R,0.06000X0.06000*%
%ADD70C,0.01500*%
%ADD19C,0.04800*%
%ADD18C,0.05000*%
%ADD17C,0.05600*%
%ADD10C,0.06000*%
%ADD13C,0.06000*%
%ADD16C,0.07000*%
X0Y0D02*
D02*
D10*
X30Y2203D03*
D02*
D12*
X2330Y1503D03*
D02*
D13*
Y603D03*
Y703D03*
Y803D03*
Y903D03*
Y1002D03*
Y1103D03*
Y1202D03*
Y1303D03*
Y1403D03*
X2630Y603D03*
Y703D03*
Y803D03*
Y903D03*
Y1002D03*
Y1103D03*
Y1202D03*
Y1303D03*
Y1403D03*
Y1503D03*
D02*
D14*
X1630D03*
Y1603D03*
Y1703D03*
Y1803D03*
X1780Y903D03*
Y1002D03*
Y1103D03*
Y1202D03*
Y1303D03*
X2030Y1903D03*
X2080Y1002D03*
Y1103D03*
Y1202D03*
Y1303D03*
Y1403D03*
Y1503D03*
X2130Y1903D03*
X2230D03*
X2330Y253D03*
Y1903D03*
X2430Y253D03*
Y1903D03*
X2530Y253D03*
X2630D03*
X2680Y1903D03*
X2730Y253D03*
X2780Y502D03*
Y603D03*
Y703D03*
Y803D03*
Y903D03*
Y1002D03*
Y1903D03*
X2830Y253D03*
X2880Y1903D03*
X2930Y253D03*
X2980Y1903D03*
X3030Y253D03*
X3130D03*
Y1603D03*
Y1703D03*
Y1803D03*
Y1903D03*
X3380Y453D03*
Y553D03*
Y653D03*
Y753D03*
Y853D03*
Y1002D03*
Y1103D03*
Y1202D03*
Y1303D03*
Y1403D03*
Y1503D03*
D02*
D16*
X1744Y525D03*
Y703D03*
X1980Y525D03*
Y703D03*
D02*
D17*
X1530Y1503D03*
Y1803D03*
X1630Y2003D03*
X1780Y1603D03*
X1885D03*
X2330Y153D03*
X2580D03*
X2680Y2003D03*
X2880Y1002D03*
X2930Y1103D03*
X2980Y2003D03*
X3180D03*
X3230Y403D03*
D02*
D18*
X1530Y1803D02*
Y1503D01*
X1630Y1603D02*
X1780D01*
X1630Y1703D02*
Y1603D01*
Y1703D02*
X2480D01*
X1630Y2003D02*
X2680D01*
X2080Y1503D02*
X1630D01*
X2330Y253D02*
Y153D01*
X2530Y253D02*
X2430D01*
X2530D02*
X2480D01*
Y1703*
X2580Y153D02*
X2630D01*
Y253*
X2680Y1903D02*
Y2003D01*
X2730Y1703D02*
X2480D01*
X2730D02*
Y1503D01*
X2630*
X2780Y1903D02*
X2880D01*
Y1803D02*
Y1903D01*
Y1803D02*
X2730D01*
Y1703*
X2980Y1903D02*
X3130D01*
X2980Y2003D02*
Y1903D01*
X3130Y1803D02*
X2880D01*
X3130D02*
Y1703D01*
Y1903D02*
X3230D01*
Y1603*
X3180*
Y1503*
X3380*
X3180Y1603D02*
X3130D01*
D02*
D19*
X1730Y1403D03*
X1880Y1002D03*
Y1252D03*
X1980Y1303D03*
X2130Y1803D03*
X2180Y403D03*
X2230Y1603D03*
X2380Y1768D03*
X2411Y403D03*
X2430Y1811D03*
X2480Y1768D03*
X2630Y1603D03*
Y1768D03*
X3230Y1202D03*
Y1403D03*
X3480Y553D03*
D02*
D70*
X1780Y1202D02*
X1680D01*
Y1403*
X1730*
X1880Y1002D02*
Y1252D01*
X1980Y1303D02*
Y703D01*
X2080Y1002D02*
X2330D01*
X2080Y1103D02*
X2330D01*
X2080Y1202D02*
X2330D01*
X2080Y1303D02*
X2330D01*
X2080Y1403D02*
X2330D01*
Y703D02*
X2380D01*
Y1603*
X2230*
X2380Y1768D02*
X2480D01*
X2411Y403D02*
X2180D01*
X2430Y1811D02*
X2280D01*
Y1803*
X2130*
X2480Y1768D02*
X2630D01*
Y1303D02*
X3380D01*
X2780Y603D02*
X2630D01*
X2780Y703D02*
X2630D01*
X2780Y803D02*
X2630D01*
X2780Y903D02*
X2630D01*
X2780Y1002D02*
X2630D01*
X2880D02*
X3380D01*
X2930Y253D02*
Y353D01*
X2530*
Y1303*
X2630*
X3230Y1403D02*
X2630D01*
X3380Y653D02*
X3230D01*
Y403*
X3380Y753D02*
X3030D01*
Y253*
X3380Y1002D02*
X3480D01*
X3380Y1103D02*
X2930D01*
X3380Y1202D02*
X3230D01*
X3480Y553D02*
Y1002D01*
Y1753*
X3280Y1953*
X3230*
X3180Y2003*
X0Y0D02*
M02*
