%FSLAX23Y23*%
%MOIN*%
G04 EasyPC Gerber Version 18.0.1 Build 3581 *
%ADD14R,0.06000X0.06000*%
%ADD12R,0.06000X0.06000*%
%ADD11C,0.00100*%
%ADD70C,0.01500*%
%ADD19C,0.04800*%
%ADD18C,0.05000*%
%ADD17C,0.05600*%
%ADD10C,0.06000*%
%ADD13C,0.06000*%
%ADD15R,0.06000X0.05500*%
%ADD16C,0.07000*%
X0Y0D02*
D02*
D10*
X30Y2203D03*
D02*
D11*
X1447Y275D02*
X1452Y272D01*
X1455Y267*
X1452Y262*
X1447Y260*
X1430*
Y289*
X1447*
X1452Y287*
X1455Y282*
X1452Y277*
X1447Y275*
X1430*
X1482Y260D02*
X1479D01*
Y289*
X1509Y267D02*
X1511Y262D01*
X1516Y260*
X1521*
X1526Y262*
X1528Y267*
Y272*
X1526Y277*
X1521Y280*
X1516*
X1511Y277*
X1509Y272*
Y267*
X1568Y277D02*
X1563Y280D01*
X1555*
X1551Y277*
X1548Y272*
Y267*
X1551Y262*
X1555Y260*
X1563*
X1568Y262*
X1587Y260D02*
Y289D01*
Y270D02*
X1595D01*
X1607Y280*
X1595Y270D02*
X1607Y260D01*
X1627Y270D02*
X1647D01*
X1671Y280D02*
X1681D01*
X1676Y284D02*
Y262D01*
X1679Y260*
X1681*
X1683Y262*
X1725D02*
X1723Y260D01*
X1718*
X1713*
X1708Y262*
X1706Y267*
Y275*
X1708Y277*
X1713Y280*
X1718*
X1723Y277*
X1725Y275*
Y272*
X1723Y270*
X1718Y267*
X1713*
X1708Y270*
X1706Y272*
X1745Y262D02*
X1750Y260D01*
X1760*
X1765Y262*
Y267*
X1760Y270*
X1750*
X1745Y272*
Y277*
X1750Y280*
X1760*
X1765Y277*
X1789Y280D02*
X1799D01*
X1794Y284D02*
Y262D01*
X1797Y260*
X1799*
X1802Y262*
X1843D02*
X1841Y260D01*
X1836*
X1831*
X1826Y262*
X1824Y267*
Y275*
X1826Y277*
X1831Y280*
X1836*
X1841Y277*
X1843Y275*
Y272*
X1841Y270*
X1836Y267*
X1831*
X1826Y270*
X1824Y272*
X1863Y260D02*
Y280D01*
Y272D02*
X1866Y277D01*
X1870Y280*
X1875*
X1880Y277*
X1680Y193D02*
Y212D01*
Y205D02*
X1682Y210D01*
X1687Y212*
X1692*
X1697Y210*
X1739Y195D02*
X1737Y193D01*
X1732*
X1727*
X1722Y195*
X1719Y200*
Y207*
X1722Y210*
X1727Y212*
X1732*
X1737Y210*
X1739Y207*
Y205*
X1737Y202*
X1732Y200*
X1727*
X1722Y202*
X1719Y205*
X1759Y212D02*
X1769Y193D01*
X1778Y212*
X1857Y193D02*
X1837D01*
X1855Y210*
X1857Y215*
X1855Y220*
X1850Y222*
X1842*
X1837Y220*
X1643Y953D02*
X1673D01*
Y977*
X1670Y1012D02*
X1673Y1009D01*
Y1004*
Y999*
X1670Y994*
X1665Y992*
X1658*
X1655Y994*
X1653Y999*
Y1004*
X1655Y1009*
X1658Y1012*
X1660*
X1663Y1009*
X1665Y1004*
Y999*
X1663Y994*
X1660Y992*
X1673Y1041D02*
X1648D01*
X1646Y1044*
Y1046*
X1648Y1048*
X1655Y1036D02*
Y1046D01*
X1653Y1076D02*
Y1085D01*
X1648Y1080D02*
X1670D01*
X1673Y1083*
Y1085*
X1670Y1088*
X1663Y1110D02*
Y1130D01*
X1670Y1149D02*
X1673Y1154D01*
Y1162*
X1670Y1167*
X1665Y1169*
X1663*
X1658Y1167*
X1655Y1162*
Y1149*
X1643*
Y1169*
X1673Y1189D02*
X1653D01*
X1660D02*
X1655Y1191D01*
X1653Y1196*
Y1201*
X1655Y1206*
X1665Y1228D02*
X1670Y1231D01*
X1673Y1235*
Y1240*
X1670Y1245*
X1665Y1248*
X1660*
X1655Y1245*
X1653Y1240*
Y1235*
X1655Y1231*
X1660Y1228*
X1665*
X1653Y1267D02*
X1670D01*
X1673Y1270*
Y1275*
X1670Y1277*
X1663*
X1670D02*
X1673Y1280D01*
Y1285*
X1670Y1287*
X1653*
X1780Y410D02*
Y439D01*
X1797*
X1802Y437*
X1805Y432*
X1802Y427*
X1797Y425*
X1780*
X1797D02*
X1805Y410D01*
X1839Y412D02*
X1837Y410D01*
X1832*
X1827*
X1822Y412*
X1819Y417*
Y425*
X1822Y427*
X1827Y430*
X1832*
X1837Y427*
X1839Y425*
Y422*
X1837Y420*
X1832Y417*
X1827*
X1822Y420*
X1819Y422*
X1859Y412D02*
X1864Y410D01*
X1874*
X1878Y412*
Y417*
X1874Y420*
X1864*
X1859Y422*
Y427*
X1864Y430*
X1874*
X1878Y427*
X1918Y412D02*
X1915Y410D01*
X1910*
X1905*
X1901Y412*
X1898Y417*
Y425*
X1901Y427*
X1905Y430*
X1910*
X1915Y427*
X1918Y425*
Y422*
X1915Y420*
X1910Y417*
X1905*
X1901Y420*
X1898Y422*
X1942Y430D02*
X1952D01*
X1947Y434D02*
Y412D01*
X1950Y410*
X1952*
X1955Y412*
X1792Y1810D02*
Y1839D01*
X1780D02*
X1805D01*
X1819Y1830D02*
Y1803D01*
Y1817D02*
X1822Y1812D01*
X1827Y1810*
X1832*
X1837Y1812*
X1839Y1817*
Y1822*
X1837Y1827*
X1832Y1830*
X1827*
X1822Y1827*
X1819Y1822*
Y1817*
X1859Y1820D02*
X1878D01*
X1898Y1812D02*
X1903Y1810D01*
X1910*
X1915Y1812*
X1918Y1817*
Y1820*
X1915Y1825*
X1910Y1827*
X1898*
Y1839*
X1918*
X1937Y1810D02*
Y1830D01*
Y1822D02*
X1940Y1827D01*
X1945Y1830*
X1950*
X1955Y1827*
X1977Y1817D02*
X1979Y1812D01*
X1984Y1810*
X1989*
X1994Y1812*
X1997Y1817*
Y1822*
X1994Y1827*
X1989Y1830*
X1984*
X1979Y1827*
X1977Y1822*
Y1817*
X2016Y1830D02*
Y1812D01*
X2019Y1810*
X2024*
X2026Y1812*
Y1820*
Y1812D02*
X2029Y1810D01*
X2033*
X2036Y1812*
Y1830*
X2180Y1101D02*
X2185Y1098D01*
X2192*
X2197Y1101*
X2200Y1105*
Y1108*
X2197Y1113*
X2192Y1115*
X2180*
Y1128*
X2200*
X2192Y1193D02*
Y1222D01*
X2180Y1202*
X2200*
X2182Y1301D02*
X2187Y1299D01*
X2192*
X2197Y1301*
X2200Y1306*
X2197Y1311*
X2192Y1314*
X2187*
X2192D02*
X2197Y1316D01*
X2200Y1321*
X2197Y1326*
X2192Y1328*
X2187*
X2182Y1326*
X2200Y1410D02*
X2180D01*
X2197Y1427*
X2200Y1432*
X2197Y1437*
X2192Y1439*
X2185*
X2180Y1437*
X2230Y967D02*
X2232Y972D01*
X2237Y975*
X2242*
X2247Y972*
X2250Y967*
X2247Y962*
X2242Y960*
X2237*
X2232Y962*
X2230Y967*
Y975*
X2232Y982*
X2237Y987*
X2242Y989*
X2692Y1810D02*
Y1839D01*
X2680D02*
X2705D01*
X2719Y1817D02*
X2722Y1812D01*
X2727Y1810*
X2732*
X2737Y1812*
X2739Y1817*
Y1822*
X2737Y1827*
X2732Y1830*
X2727*
X2722Y1827*
X2719Y1822*
Y1817*
X2759Y1830D02*
Y1803D01*
Y1817D02*
X2761Y1812D01*
X2766Y1810*
X2771*
X2776Y1812*
X2778Y1817*
Y1822*
X2776Y1827*
X2771Y1830*
X2766*
X2761Y1827*
X2759Y1822*
Y1817*
X2798Y1820D02*
X2818D01*
X2850Y1810D02*
Y1839D01*
X2837Y1820*
X2857*
X2877Y1810D02*
Y1830D01*
Y1822D02*
X2879Y1827D01*
X2884Y1830*
X2889*
X2894Y1827*
X2916Y1817D02*
X2919Y1812D01*
X2924Y1810*
X2929*
X2933Y1812*
X2936Y1817*
Y1822*
X2933Y1827*
X2929Y1830*
X2924*
X2919Y1827*
X2916Y1822*
Y1817*
X2956Y1830D02*
Y1812D01*
X2958Y1810*
X2963*
X2965Y1812*
Y1820*
Y1812D02*
X2968Y1810D01*
X2973*
X2975Y1812*
Y1830*
X2747Y325D02*
X2752Y322D01*
X2755Y317*
X2752Y312*
X2747Y310*
X2730*
Y339*
X2747*
X2752Y337*
X2755Y332*
X2752Y327*
X2747Y325*
X2730*
X2769Y317D02*
X2772Y312D01*
X2777Y310*
X2782*
X2787Y312*
X2789Y317*
Y322*
X2787Y327*
X2782Y330*
X2777*
X2772Y327*
X2769Y322*
Y317*
X2814Y330D02*
X2824D01*
X2819Y334D02*
Y312D01*
X2821Y310*
X2824*
X2826Y312*
X2853Y330D02*
X2863D01*
X2858Y334D02*
Y312D01*
X2860Y310*
X2863*
X2865Y312*
X2887Y317D02*
X2890Y312D01*
X2895Y310*
X2900*
X2905Y312*
X2907Y317*
Y322*
X2905Y327*
X2900Y330*
X2895*
X2890Y327*
X2887Y322*
Y317*
X2927Y310D02*
Y330D01*
Y327D02*
X2929Y330D01*
X2934*
X2937Y327*
Y320*
Y327D02*
X2939Y330D01*
X2944*
X2947Y327*
Y310*
X2966Y320D02*
X2986D01*
X3006Y312D02*
X3011Y310D01*
X3018*
X3023Y312*
X3025Y317*
Y320*
X3023Y325*
X3018Y327*
X3006*
Y339*
X3025*
X3045Y320D02*
X3065D01*
X3084Y310D02*
Y330D01*
Y322D02*
X3087Y327D01*
X3092Y330*
X3097*
X3102Y327*
X3124Y317D02*
X3126Y312D01*
X3131Y310*
X3136*
X3141Y312*
X3143Y317*
Y322*
X3141Y327*
X3136Y330*
X3131*
X3126Y327*
X3124Y322*
Y317*
X3163Y330D02*
Y312D01*
X3166Y310*
X3170*
X3173Y312*
Y320*
Y312D02*
X3175Y310D01*
X3180*
X3183Y312*
Y330*
X2723Y657D02*
Y667D01*
Y662D02*
X2693D01*
X2698Y657*
X2723Y712D02*
Y692D01*
X2705Y709*
X2700Y712*
X2696Y709*
X2693Y704*
Y697*
X2696Y692*
X2873Y502D02*
X2843Y522D01*
Y502*
X2873Y607D02*
Y617D01*
Y612D02*
X2843D01*
X2848Y607*
X2873Y647D02*
Y657D01*
Y652D02*
X2843D01*
X2848Y647*
X2873Y857D02*
Y867D01*
Y862D02*
X2843D01*
X2848Y857*
X2873Y904D02*
X2843D01*
X2863Y892*
Y912*
X2923Y757D02*
Y767D01*
Y762D02*
X2893D01*
X2898Y757*
X2920Y794D02*
X2923Y799D01*
Y804*
X2920Y809*
X2915Y812*
X2910Y809*
X2908Y804*
Y799*
Y804D02*
X2905Y809D01*
X2900Y812*
X2896Y809*
X2893Y804*
Y799*
X2896Y794*
X2980Y1720D02*
X3000D01*
X2990Y1710D02*
Y1730D01*
X3019Y1739D02*
X3032Y1710D01*
X3044Y1739*
X3030Y1217D02*
X3032Y1212D01*
X3037Y1210*
X3047*
X3052Y1212*
X3055Y1217*
X3052Y1222*
X3047Y1225*
X3037*
X3032Y1227*
X3030Y1232*
X3032Y1237*
X3037Y1239*
X3047*
X3052Y1237*
X3055Y1232*
X3094Y1215D02*
X3092Y1212D01*
X3087Y1210*
X3079*
X3074Y1212*
X3072Y1215*
X3069Y1220*
Y1230*
X3072Y1234*
X3074Y1237*
X3079Y1239*
X3087*
X3092Y1237*
X3094Y1234*
X3109Y1210D02*
Y1239D01*
Y1225D02*
X3116D01*
X3133Y1239*
X3116Y1225D02*
X3133Y1210D01*
X3030Y1310D02*
Y1339D01*
X3042Y1325*
X3055Y1339*
Y1310*
X3077D02*
X3087D01*
X3082D02*
Y1339D01*
X3077D02*
X3087D01*
X3109Y1317D02*
X3111Y1312D01*
X3116Y1310*
X3126*
X3131Y1312*
X3133Y1317*
X3131Y1322*
X3126Y1325*
X3116*
X3111Y1327*
X3109Y1332*
X3111Y1337*
X3116Y1339*
X3126*
X3131Y1337*
X3133Y1332*
X3148Y1320D02*
Y1330D01*
X3151Y1334*
X3153Y1337*
X3158Y1339*
X3163*
X3168Y1337*
X3170Y1334*
X3173Y1330*
Y1320*
X3170Y1315*
X3168Y1312*
X3163Y1310*
X3158*
X3153Y1312*
X3151Y1315*
X3148Y1320*
X3080Y1010D02*
Y1039D01*
X3092Y1025*
X3105Y1039*
Y1010*
X3119Y1020D02*
Y1030D01*
X3122Y1034*
X3124Y1037*
X3129Y1039*
X3134*
X3139Y1037*
X3142Y1034*
X3144Y1030*
Y1020*
X3142Y1015*
X3139Y1012*
X3134Y1010*
X3129*
X3124Y1012*
X3122Y1015*
X3119Y1020*
X3159Y1017D02*
X3161Y1012D01*
X3166Y1010*
X3176*
X3181Y1012*
X3183Y1017*
X3181Y1022*
X3176Y1025*
X3166*
X3161Y1027*
X3159Y1032*
X3161Y1037*
X3166Y1039*
X3176*
X3181Y1037*
X3183Y1032*
X3205Y1010D02*
X3215D01*
X3210D02*
Y1039D01*
X3205D02*
X3215D01*
X3080Y1110D02*
Y1139D01*
X3097*
X3102Y1137*
X3105Y1132*
X3102Y1127*
X3097Y1125*
X3080*
X3097D02*
X3105Y1110D01*
X3119Y1112D02*
X3124Y1110D01*
X3134*
X3139Y1112*
Y1117*
X3134Y1120*
X3124*
X3119Y1122*
Y1127*
X3124Y1130*
X3134*
X3139Y1127*
X3164Y1130D02*
X3174D01*
X3169Y1134D02*
Y1112D01*
X3171Y1110*
X3174*
X3176Y1112*
X3147Y1522D02*
X3155D01*
Y1520*
X3152Y1515*
X3150Y1512*
X3145Y1510*
X3140*
X3135Y1512*
X3132Y1515*
X3130Y1520*
Y1530*
X3132Y1534*
X3135Y1537*
X3140Y1539*
X3145*
X3150Y1537*
X3152Y1534*
X3155Y1530*
X3169Y1510D02*
Y1539D01*
X3194Y1510*
Y1539*
X3209Y1510D02*
Y1539D01*
X3224*
X3228Y1537*
X3231Y1534*
X3233Y1530*
Y1520*
X3231Y1515*
X3228Y1512*
X3224Y1510*
X3209*
X3273Y502D02*
X3243D01*
Y520*
X3246Y525*
X3250Y527*
X3255Y525*
X3258Y520*
Y502*
Y520D02*
X3273Y527D01*
Y552D02*
X3253D01*
X3246D02*
X3260Y601*
X3255Y598D01*
X3253Y594*
Y589*
X3255Y584*
X3260Y581*
X3263*
X3268Y584*
X3270Y589*
Y594*
X3268Y598*
X3263Y601*
X3253D02*
X3273D01*
X3278Y598*
X3280Y594*
Y586*
X3278Y581*
X3273Y621D02*
X3243D01*
X3260D02*
X3255Y623D01*
X3253Y628*
Y633*
X3255Y638*
X3260Y640*
X3273*
X3253Y665D02*
Y675D01*
X3248Y670D02*
X3270D01*
X3273Y672*
Y675*
X3270Y677*
X3263Y699D02*
Y719D01*
X3270Y739D02*
X3273Y744D01*
Y751*
X3270Y756*
X3265Y758*
X3263*
X3258Y756*
X3255Y751*
Y739*
X3243*
Y758*
X3273Y778D02*
X3253D01*
X3260D02*
X3255Y781D01*
X3253Y785*
Y790*
X3255Y795*
X3265Y817D02*
X3270Y820D01*
X3273Y825*
Y830*
X3270Y835*
X3265Y837*
X3260*
X3255Y835*
X3253Y830*
Y825*
X3255Y820*
X3260Y817*
X3265*
X3253Y857D02*
X3270D01*
X3273Y859*
Y864*
X3270Y867*
X3263*
X3270D02*
X3273Y869D01*
Y874*
X3270Y877*
X3253*
X3298Y1002D02*
X3293Y1005D01*
X3291Y1010*
Y1015*
X3293Y1020*
X3298Y1022*
X3303Y1020*
X3306Y1015*
Y1010*
X3303Y1005*
X3298Y1002*
X3291*
X3284Y1005*
X3279Y1010*
X3276Y1015*
X3306Y1091D02*
X3276D01*
Y1108*
X3279Y1113*
X3284Y1115*
X3288Y1113*
X3291Y1108*
Y1091*
X3306Y1130D02*
X3286D01*
X3293D02*
X3288Y1133D01*
X3286Y1137*
Y1142*
X3288Y1147*
X3298Y1169D02*
X3303Y1172D01*
X3306Y1177*
Y1182*
X3303Y1187*
X3298Y1189*
X3293*
X3288Y1187*
X3286Y1182*
Y1177*
X3288Y1172*
X3293Y1169*
X3298*
X3293Y1228D02*
X3288Y1226D01*
X3286Y1221*
Y1216*
X3288Y1211*
X3293Y1209*
X3296*
X3301Y1211*
X3303Y1216*
Y1221*
X3301Y1226*
X3296Y1228*
X3286D02*
X3306D01*
X3311Y1226*
X3313Y1221*
Y1214*
X3311Y1209*
X3306Y1248D02*
X3286D01*
X3293D02*
X3288Y1251D01*
X3286Y1256*
Y1260*
X3288Y1265*
Y1288D02*
X3286Y1292D01*
Y1300*
X3288Y1305*
X3293Y1307*
X3301*
X3303Y1305*
X3306Y1300*
Y1295*
X3303Y1290*
X3301Y1288*
X3298*
X3296Y1290*
X3293Y1295*
Y1300*
X3296Y1305*
X3298Y1307*
X3301D02*
X3306D01*
Y1327D02*
X3286D01*
X3288D02*
X3286Y1329D01*
Y1334*
X3288Y1337*
X3296*
X3288D02*
X3286Y1339D01*
Y1344*
X3288Y1347*
X3306*
X3303Y1386D02*
X3306Y1384D01*
Y1379*
Y1374*
X3303Y1369*
X3298Y1366*
X3291*
X3288Y1369*
X3286Y1374*
Y1379*
X3288Y1384*
X3291Y1386*
X3293*
X3296Y1384*
X3298Y1379*
Y1374*
X3296Y1369*
X3293Y1366*
X3306Y1406D02*
X3286D01*
X3293D02*
X3288Y1408D01*
X3286Y1413*
Y1418*
X3288Y1423*
X3306Y1507D02*
Y1517D01*
Y1512D02*
X3276D01*
X3281Y1507*
X3373Y1803D02*
X3343D01*
Y1820*
X3346Y1825*
X3350Y1827*
X3355Y1825*
X3358Y1820*
Y1803*
Y1820D02*
X3373Y1827D01*
X3353Y1847D02*
Y1857D01*
X3348Y1852D02*
X3370D01*
X3373Y1854*
Y1857*
X3370Y1859*
X3363Y1881D02*
Y1901D01*
X3373Y1933D02*
X3343D01*
X3363Y1921*
Y1940*
X3373Y1960D02*
X3353D01*
X3360D02*
X3355Y1962D01*
X3353Y1967*
Y1972*
X3355Y1977*
X3365Y1999D02*
X3370Y2002D01*
X3373Y2007*
Y2012*
X3370Y2017*
X3365Y2019*
X3360*
X3355Y2017*
X3353Y2012*
Y2007*
X3355Y2002*
X3360Y1999*
X3365*
X3353Y2039D02*
X3370D01*
X3373Y2041*
Y2046*
X3370Y2049*
X3363*
X3370D02*
X3373Y2051D01*
Y2056*
X3370Y2058*
X3353*
D02*
D12*
X2330Y1503D03*
D02*
D13*
Y603D03*
Y703D03*
Y803D03*
Y903D03*
Y1002D03*
Y1103D03*
Y1202D03*
Y1303D03*
Y1403D03*
X2630Y603D03*
Y703D03*
Y803D03*
Y903D03*
Y1002D03*
Y1103D03*
Y1202D03*
Y1303D03*
Y1403D03*
Y1503D03*
D02*
D14*
X1630D03*
Y1603D03*
Y1703D03*
Y1803D03*
X1780Y903D03*
Y1002D03*
Y1103D03*
Y1202D03*
Y1303D03*
X2030Y1903D03*
X2080Y1002D03*
Y1103D03*
Y1202D03*
Y1303D03*
Y1403D03*
Y1503D03*
X2130Y1903D03*
X2230D03*
X2330Y253D03*
Y1903D03*
X2430Y253D03*
Y1903D03*
X2530Y253D03*
X2630D03*
X2680Y1903D03*
X2730Y253D03*
X2780Y502D03*
Y603D03*
Y703D03*
Y803D03*
Y903D03*
Y1002D03*
Y1903D03*
X2830Y253D03*
X2880Y1903D03*
X2930Y253D03*
X2980Y1903D03*
X3030Y253D03*
X3130D03*
Y1603D03*
Y1703D03*
Y1803D03*
Y1903D03*
X3380Y453D03*
Y553D03*
Y653D03*
Y753D03*
Y853D03*
Y1002D03*
Y1103D03*
Y1202D03*
Y1303D03*
Y1403D03*
Y1503D03*
D02*
D15*
X1885Y1603D03*
X1975D03*
D02*
D16*
X1744Y525D03*
Y703D03*
X1980Y525D03*
Y703D03*
D02*
D17*
X1530Y1503D03*
Y1803D03*
X1630Y2003D03*
X1780Y1603D03*
X1885D03*
X2330Y153D03*
X2580D03*
X2680Y2003D03*
X2880Y1002D03*
X2930Y1103D03*
X2980Y2003D03*
X3180D03*
X3230Y403D03*
D02*
D18*
X1530Y703D02*
Y1503D01*
X1630*
Y1803D02*
Y2003D01*
Y1803D02*
X1530D01*
X1744Y703D02*
X1530D01*
X1780Y1603D02*
X1885D01*
X2330Y153D02*
X1980D01*
Y353*
X1530*
Y703*
X2330Y153D02*
X2580D01*
X2330Y253D02*
Y603D01*
X2680Y2003D02*
X2980D01*
X3130Y1803D02*
X3280D01*
X3480Y1603*
Y1403*
X3380*
D02*
D19*
X1730D03*
X1880Y1002D03*
Y1252D03*
X1980Y1303D03*
X2130Y1803D03*
X2180Y403D03*
X2230Y1603D03*
X2380Y1768D03*
X2411Y403D03*
X2430Y1811D03*
X2480Y1768D03*
X2630Y1603D03*
Y1768D03*
X3230Y1202D03*
Y1403D03*
X3480Y553D03*
D02*
D70*
X1730Y1403D02*
Y2053D01*
X2330*
X1780Y1002D02*
X1880D01*
Y1252D02*
X2430D01*
Y1403*
X1975Y1603D02*
Y1303D01*
X1980*
X2130Y1803D02*
Y1903D01*
X2180Y403D02*
X2080D01*
Y803*
X2330*
X2230Y1603D02*
Y1903D01*
X2330Y903D02*
X2430D01*
Y502*
X2780*
X2330Y1503D02*
X2180D01*
Y1603*
X1975*
X2330Y2053D02*
X3130D01*
X3180Y2003*
X2330Y2053D02*
Y1903D01*
X2430Y1403D02*
Y1811D01*
Y1403D02*
X2630D01*
Y1103D02*
X2430D01*
Y1053*
X2180*
Y903*
X1980*
Y1103*
X1780*
X2630Y1202D02*
X2880D01*
Y1002*
X2630Y1768D02*
Y1603D01*
X2830Y253D02*
Y153D01*
X3230*
X3480Y403*
Y553*
X2930Y1103D02*
Y1603D01*
X2630*
X3230Y403D02*
X2411D01*
X3230Y1202D02*
Y1403D01*
X3380Y553D02*
X3480D01*
X3380Y1202D02*
X3480D01*
Y753*
X3380*
X0Y0D02*
M02*
