%FSLAX23Y23*%
%MOIN*%
G04 EasyPC Gerber Version 18.0.1 Build 3581 *
%ADD14R,0.06000X0.06000*%
%ADD12R,0.06000X0.06000*%
%ADD70C,0.01500*%
%ADD18C,0.05000*%
%ADD17C,0.05600*%
%ADD13C,0.06000*%
%ADD15R,0.06000X0.05500*%
%ADD16C,0.07000*%
%ADD20C,0.09843*%
X0Y0D02*
D02*
D12*
X753Y1519D03*
D02*
D13*
Y619D03*
Y719D03*
Y819D03*
Y919D03*
Y1019D03*
Y1119D03*
Y1219D03*
Y1319D03*
Y1419D03*
X1053Y619D03*
Y719D03*
Y819D03*
Y919D03*
Y1019D03*
Y1119D03*
Y1219D03*
Y1319D03*
Y1419D03*
Y1519D03*
D02*
D14*
X353Y569D03*
Y669D03*
Y769D03*
Y869D03*
Y1119D03*
Y1219D03*
Y1319D03*
Y1419D03*
Y1519D03*
Y1619D03*
X1503Y519D03*
Y619D03*
Y719D03*
Y819D03*
Y1119D03*
Y1219D03*
Y1319D03*
Y1419D03*
Y1519D03*
D02*
D15*
X558Y369D03*
X648D03*
X658Y469D03*
X748D03*
X1258Y519D03*
Y619D03*
Y719D03*
Y819D03*
Y1219D03*
X1348Y519D03*
Y619D03*
Y719D03*
Y819D03*
Y1219D03*
D02*
D16*
X903Y183D03*
Y419D03*
X1080Y183D03*
Y419D03*
D02*
D17*
X478Y369D03*
Y1019D03*
X903Y1119D03*
D02*
D18*
X478Y369D02*
X558D01*
X478Y1019D02*
X753D01*
X653Y194D02*
X253D01*
Y1519*
X353*
X653Y369D02*
Y194D01*
Y369D02*
X648D01*
X658Y469D02*
X653D01*
Y369*
X903Y1119D02*
X1053D01*
Y1019D02*
X1578D01*
Y294*
X828*
Y194*
X653*
X1053Y1119D02*
X1503D01*
D02*
D70*
X353Y569D02*
X303D01*
Y719*
X753*
X353Y769D02*
X303D01*
Y919*
X753*
X353Y1119D02*
X303D01*
Y1369*
X753*
Y1419*
X353D02*
Y1469D01*
X753*
Y1519*
Y469D02*
X748D01*
X753D02*
X903D01*
Y419*
X753Y469D02*
Y619D01*
X853*
Y1269*
X353*
Y1219*
X753Y819D02*
X803D01*
Y669*
X353*
X753Y1219D02*
X803D01*
Y869*
X353*
X753Y1319D02*
X353D01*
X1053Y819D02*
X1203D01*
Y719*
X1258*
X1053Y919D02*
X1253D01*
Y819*
X1258*
X1053Y1319D02*
X1503D01*
X1053Y1419D02*
X1503D01*
X1053Y1519D02*
X1503D01*
X1258Y519D02*
X1053D01*
Y619*
X1258D02*
X1178D01*
Y719*
X1053*
X1258Y1219D02*
X1053D01*
X1348Y519D02*
X1503D01*
X1348Y619D02*
X1503D01*
X1348Y719D02*
X1503D01*
X1348Y819D02*
X1503D01*
X1348Y1219D02*
X1503D01*
D02*
D20*
X153Y195D03*
Y1640D03*
X1625Y195D03*
Y1640D03*
X0Y0D02*
M02*
